<svg width="150" height="122" viewBox="0 0 150 122" fill="none" xmlns="http://www.w3.org/2000/svg">
<g clip-path="url(#clip0)">
<path d="M119.47 86.7979C119.47 86.7979 138.027 87.6256 133.704 92.6657C129.382 97.7058 118.024 89.7091 118.024 89.7091L119.47 86.7979Z" fill="#FFB8B8"/>
<path d="M85.2723 38.7917L89.0495 39.6065C89.0495 39.6065 91.2528 45.3095 92.8266 50.4693C94.4005 55.6292 97.5481 71.1088 97.5481 71.1088L121.951 85.8641L119.04 91.4815L86.5314 80.4273L79.2917 55.9007L85.2723 38.7917Z" fill="#575A89"/>
<path opacity="0.2" d="M88.8262 48.9147L87.4184 74.3501L90.3561 81.9123L81.7507 76.4677L88.8262 48.9147Z" fill="black"/>
<path d="M93.9286 94.0567C93.9286 94.0567 98.0205 103.562 98.6501 110.079C99.2796 116.597 99.9091 121.757 99.9091 121.757H80.7084L76.9313 116.869V121.757H54.5829C54.5829 121.757 48.2876 104.105 50.8057 101.932C53.3239 99.7597 77.246 90.5262 77.246 90.5262L93.9286 94.0567Z" fill="#2F2E41"/>
<path d="M130.514 121.509H19.4097V121.839H130.514V121.509Z" fill="#3F3D56"/>
<path d="M69.8488 28.4721C76.4547 28.4721 81.8098 23.8518 81.8098 18.1524C81.8098 12.453 76.4547 7.8327 69.8488 7.8327C63.2428 7.8327 57.8877 12.453 57.8877 18.1524C57.8877 23.8518 63.2428 28.4721 69.8488 28.4721Z" fill="#FFB8B8"/>
<path d="M60.7207 22.4975L59.7764 34.4466L71.7374 48.2968L77.718 35.2613C77.718 35.2613 72.367 32.2741 75.5146 26.0279L60.7207 22.4975Z" fill="#FFB8B8"/>
<path d="M95.6588 96.3648C95.6588 98.8099 87.7897 102.611 87.7897 102.611V103.969L84.642 105.327L77.7176 93.3785L75.8302 106.413C75.8302 106.413 61.9794 108.315 57.5735 106.413C53.1656 104.512 50.9627 105.327 44.6674 103.426C38.3721 101.526 47.1859 75.997 47.1859 75.997L40.8906 36.6193L54.6438 30.6864L55.3686 30.3729L57.2599 30.0726L60.1589 29.6107L69.8485 35.2615L70.6287 38.7922L71.1087 40.9651L73.6253 38.52L75.5261 33.1266L89.0499 39.6073L85.2731 65.677C85.2731 65.677 95.6588 93.9213 95.6588 96.3648Z" fill="#575A89"/>
<path d="M49.3893 104.784C49.3893 104.784 63.8685 114.832 56.9437 116.733C50.0189 118.634 46.2417 106.413 46.2417 106.413L49.3893 104.784Z" fill="#FFB8B8"/>
<path d="M44.0381 37.1623L40.8905 36.6192C40.8905 36.6192 36.169 38.7918 35.8542 43.1369C35.5395 47.4821 31.4475 77.898 31.4475 77.898L44.6676 108.586L55.3697 105.055L44.9824 76.2686L52.8515 51.2841L44.0381 37.1623Z" fill="#575A89"/>
<path d="M71.2331 45.4498C71.8667 45.4498 72.3804 45.0066 72.3804 44.4599C72.3804 43.9132 71.8667 43.47 71.2331 43.47C70.5994 43.47 70.0857 43.9132 70.0857 44.4599C70.0857 45.0066 70.5994 45.4498 71.2331 45.4498Z" fill="#2F2E41"/>
<path d="M71.2331 51.8843C71.8667 51.8843 72.3804 51.4411 72.3804 50.8944C72.3804 50.3477 71.8667 49.9045 71.2331 49.9045C70.5994 49.9045 70.0857 50.3477 70.0857 50.8944C70.0857 51.4411 70.5994 51.8843 71.2331 51.8843Z" fill="#2F2E41"/>
<path d="M77.7348 94.2864C78.3684 94.2864 78.8821 93.8432 78.8821 93.2965C78.8821 92.7498 78.3684 92.3066 77.7348 92.3066C77.1011 92.3066 76.5874 92.7498 76.5874 93.2965C76.5874 93.8432 77.1011 94.2864 77.7348 94.2864Z" fill="#2F2E41"/>
<path d="M59.7503 7.58037L57.5393 6.81665C57.5393 6.81665 62.1624 2.42529 68.5947 2.80715L66.7856 1.08878C66.7856 1.08878 71.2077 -0.438635 75.2278 3.57086C77.3411 5.67856 79.7863 8.15606 81.3105 10.9469H83.6784L82.6902 12.8244L86.1491 14.7018L82.5988 14.3646C82.8104 15.3927 82.8428 16.4423 82.6952 17.4787C82.5429 18.5154 81.9297 19.4605 80.985 20.1146C80.985 20.1146 78.2429 15.2175 78.2429 14.4538V16.3631C78.2429 16.3631 76.0318 14.6447 76.0318 13.4992L74.8258 14.8357H66.7856L67.9916 13.1173L63.3684 13.6901L65.1775 11.5899L58.0196 20.2624C58.0196 20.2624 53.9212 10.4443 59.7503 7.58037Z" fill="#2F2E41"/>
<path d="M130.877 80.5823C141.438 80.5823 150 73.1955 150 64.0835C150 54.9714 141.438 47.5847 130.877 47.5847C120.316 47.5847 111.754 54.9714 111.754 64.0835C111.754 73.1955 120.316 80.5823 130.877 80.5823Z" fill="#3F3D56"/>
<path opacity="0.1" d="M130.877 78.2724C139.96 78.2724 147.323 71.9198 147.323 64.0834C147.323 56.2471 139.96 49.8945 130.877 49.8945C121.794 49.8945 114.431 56.2471 114.431 64.0834C114.431 71.9198 121.794 78.2724 130.877 78.2724Z" fill="black"/>
<path d="M130.089 72.4562V70.391C128.879 70.3707 127.627 70.0025 126.897 69.4913L127.398 68.1214C128.266 68.6824 129.318 68.9903 130.402 69.0005C131.883 69.0005 132.885 68.1622 132.885 66.9968C132.885 65.8721 132.071 65.177 130.527 64.5635C128.399 63.7457 127.085 62.805 127.085 61.0262C127.085 59.329 128.316 58.0409 130.235 57.7342V55.669H131.529V57.6524C132.493 57.6638 133.434 57.912 134.241 58.368L133.719 59.7176C132.945 59.2606 132.028 59.018 131.09 59.0223C129.484 59.0223 128.879 59.9629 128.879 60.7808C128.879 61.844 129.651 62.3757 131.466 63.1118C133.615 63.9706 134.7 65.0338 134.7 66.8536C134.7 68.4689 133.552 69.9821 131.403 70.3295V72.4562H130.089Z" fill="#23D3D3"/>
<path opacity="0.2" d="M47.8083 84.1006L55.4566 104.713L49.3372 83.2646L47.8083 84.1006Z" fill="black"/>
<path d="M8.81438 43.8325H3.95969C3.7481 43.8323 3.54525 43.7597 3.39563 43.6306C3.24602 43.5016 3.16186 43.3265 3.16162 43.144V37.1231C3.16186 36.9405 3.24602 36.7655 3.39563 36.6364C3.54525 36.5073 3.7481 36.4347 3.95969 36.4345H8.81438C9.02597 36.4347 9.22882 36.5073 9.37844 36.6364C9.52805 36.7655 9.61221 36.9405 9.61244 37.1231V43.144C9.61221 43.3265 9.52805 43.5016 9.37844 43.6306C9.22882 43.7597 9.02597 43.8323 8.81438 43.8325ZM3.95969 36.7645C3.8495 36.7646 3.74387 36.8024 3.66596 36.8696C3.58804 36.9369 3.54421 37.028 3.54408 37.1231V43.144C3.54421 43.2391 3.58804 43.3302 3.66596 43.3974C3.74387 43.4646 3.8495 43.5025 3.95969 43.5026H8.81438C8.92456 43.5025 9.0302 43.4646 9.10811 43.3974C9.18602 43.3302 9.22985 43.2391 9.22999 43.144V37.1231C9.22985 37.028 9.18602 36.9369 9.10811 36.8696C9.0302 36.8024 8.92456 36.7646 8.81438 36.7645H3.95969Z" fill="#3F3D56"/>
<path d="M17.6816 43.8325H13.2975C13.0236 43.8322 12.7609 43.7382 12.5672 43.5711C12.3735 43.4039 12.2645 43.1773 12.2642 42.9409V30.7815C12.2645 30.5451 12.3735 30.3185 12.5672 30.1513C12.7609 29.9842 13.0236 29.8902 13.2975 29.8899H17.6816C17.9556 29.8902 18.2182 29.9842 18.412 30.1513C18.6057 30.3185 18.7147 30.5451 18.715 30.7815V42.9409C18.7147 43.1773 18.6057 43.4039 18.412 43.5711C18.2182 43.7382 17.9556 43.8322 17.6816 43.8325ZM13.2975 30.2199C13.125 30.22 12.9595 30.2792 12.8375 30.3845C12.7154 30.4898 12.6468 30.6326 12.6466 30.7815V42.9409C12.6468 43.0898 12.7154 43.2326 12.8375 43.3379C12.9595 43.4431 13.125 43.5024 13.2975 43.5025H17.6816C17.8542 43.5024 18.0196 43.4431 18.1417 43.3379C18.2637 43.2326 18.3323 43.0898 18.3325 42.9409V30.7815C18.3323 30.6326 18.2637 30.4898 18.1417 30.3845C18.0196 30.2793 17.8542 30.22 17.6816 30.2199L13.2975 30.2199Z" fill="#3F3D56"/>
<path d="M26.6149 43.8325H22.5694C22.2505 43.8322 21.9448 43.7228 21.7193 43.5282C21.4939 43.3337 21.3671 43.07 21.3667 42.7949V24.9066C21.3671 24.6315 21.4939 24.3677 21.7193 24.1732C21.9448 23.9787 22.2505 23.8693 22.5694 23.869H26.6149C26.9337 23.8693 27.2394 23.9787 27.4649 24.1732C27.6903 24.3677 27.8172 24.6315 27.8175 24.9066V42.7949C27.8172 43.07 27.6903 43.3337 27.4649 43.5282C27.2394 43.7228 26.9337 43.8322 26.6149 43.8325ZM22.5694 24.1989C22.3519 24.1991 22.1434 24.2738 21.9897 24.4064C21.8359 24.5391 21.7494 24.719 21.7492 24.9066V42.7949C21.7494 42.9825 21.8359 43.1624 21.9897 43.295C22.1434 43.4277 22.3519 43.5023 22.5694 43.5025H26.6149C26.8323 43.5023 27.0408 43.4277 27.1946 43.295C27.3483 43.1624 27.4348 42.9825 27.4351 42.7949V24.9066C27.4348 24.719 27.3483 24.5391 27.1946 24.4064C27.0408 24.2738 26.8323 24.1991 26.6149 24.1989H22.5694Z" fill="#3F3D56"/>
<path d="M8.20791 37.5811H4.56689V42.6858H8.20791V37.5811Z" fill="#23D3D3"/>
<path d="M17.3102 31.1021H13.6692V42.6859H17.3102V31.1021Z" fill="#23D3D3"/>
<path d="M26.4125 25.0811H22.7715V42.6859H26.4125V25.0811Z" fill="#23D3D3"/>
<path d="M138.259 24.8588H112.825C112.8 24.8589 112.775 24.8546 112.752 24.8463C112.729 24.838 112.708 24.8259 112.69 24.8105C112.672 24.7952 112.658 24.777 112.649 24.757C112.639 24.737 112.634 24.7155 112.634 24.6939V2.42048C112.634 2.37672 112.654 2.33476 112.69 2.30382C112.726 2.27288 112.775 2.25549 112.825 2.25549C112.876 2.25549 112.925 2.27288 112.96 2.30382C112.996 2.33476 113.016 2.37672 113.016 2.42048V24.5289H138.259C138.31 24.5289 138.358 24.5463 138.394 24.5772C138.43 24.6081 138.45 24.6501 138.45 24.6939C138.45 24.7376 138.43 24.7796 138.394 24.8105C138.358 24.8415 138.31 24.8588 138.259 24.8588Z" fill="#3F3D56"/>
<path d="M30.4055 46.1423H0.19123C0.166115 46.1423 0.141246 46.1381 0.118042 46.1298C0.094838 46.1215 0.0737537 46.1093 0.0559951 46.094C0.0382365 46.0787 0.0241509 46.0605 0.014543 46.0405C0.00493511 46.0205 -6.52584e-06 45.999 6.46778e-09 45.9773V20.0742C6.46778e-09 20.0305 0.0201472 19.9885 0.0560097 19.9576C0.0918722 19.9266 0.140512 19.9092 0.19123 19.9092C0.241947 19.9092 0.290587 19.9266 0.326449 19.9576C0.362312 19.9885 0.382459 20.0305 0.382459 20.0742V45.8124H30.4055C30.4562 45.8124 30.5049 45.8297 30.5407 45.8607C30.5766 45.8916 30.5967 45.9336 30.5967 45.9773C30.5967 46.0211 30.5766 46.0631 30.5407 46.094C30.5049 46.1249 30.4562 46.1423 30.4055 46.1423Z" fill="#3F3D56"/>
<path d="M121.603 22.7911H116.748C116.536 22.7909 116.333 22.7183 116.184 22.5892C116.034 22.4601 115.95 22.2851 115.95 22.1025V16.0816C115.95 15.8991 116.034 15.724 116.184 15.5949C116.333 15.4658 116.536 15.3933 116.748 15.3931H121.603C121.814 15.3933 122.017 15.4659 122.167 15.595C122.316 15.7241 122.4 15.8991 122.401 16.0816V22.1026C122.4 22.2851 122.316 22.4601 122.167 22.5892C122.017 22.7183 121.814 22.7909 121.603 22.7911ZM116.748 15.723C116.638 15.7232 116.532 15.761 116.454 15.8282C116.376 15.8954 116.332 15.9865 116.332 16.0816V22.1026C116.332 22.1976 116.376 22.2888 116.454 22.356C116.532 22.4232 116.638 22.461 116.748 22.4611H121.603C121.713 22.461 121.818 22.4232 121.896 22.356C121.974 22.2887 122.018 22.1976 122.018 22.1026V16.0816C122.018 15.9866 121.974 15.8954 121.896 15.8282C121.818 15.761 121.713 15.7232 121.603 15.723H116.748Z" fill="#3F3D56"/>
<path d="M131.544 22.7912H127.076C126.813 22.791 126.561 22.7008 126.376 22.5404C126.19 22.3801 126.085 22.1627 126.085 21.9359V11.0303C126.085 10.8035 126.19 10.5861 126.376 10.4258C126.561 10.2655 126.813 10.1753 127.076 10.175H131.544C131.807 10.1753 132.059 10.2655 132.245 10.4258C132.431 10.5861 132.535 10.8035 132.536 11.0303V21.9359C132.535 22.1627 132.431 22.3801 132.245 22.5404C132.059 22.7008 131.807 22.791 131.544 22.7912ZM127.076 10.505C126.915 10.5052 126.76 10.5606 126.646 10.659C126.532 10.7575 126.468 10.891 126.467 11.0303V21.9359C126.468 22.0752 126.532 22.2087 126.646 22.3072C126.76 22.4057 126.915 22.4611 127.076 22.4613H131.544C131.706 22.4611 131.861 22.4057 131.975 22.3072C132.089 22.2087 132.153 22.0752 132.153 21.9359V11.0303C132.153 10.891 132.089 10.7575 131.975 10.659C131.861 10.5606 131.706 10.5052 131.544 10.505H127.076Z" fill="#3F3D56"/>
<path d="M120.908 16.5969H117.267V21.7016H120.908V16.5969Z" fill="#23D3D3"/>
<path d="M131.131 11.5447H127.49V21.4215H131.131V11.5447Z" fill="#23D3D3"/>
<path d="M119.136 13.6398C120.087 13.6398 120.857 12.975 120.857 12.1549C120.857 11.3348 120.087 10.67 119.136 10.67C118.186 10.67 117.415 11.3348 117.415 12.1549C117.415 12.975 118.186 13.6398 119.136 13.6398Z" fill="#23D3D3"/>
<path d="M129.271 8.03009C130.222 8.03009 130.992 7.36528 130.992 6.54519C130.992 5.72511 130.222 5.0603 129.271 5.0603C128.321 5.0603 127.55 5.72511 127.55 6.54519C127.55 7.36528 128.321 8.03009 129.271 8.03009Z" fill="#23D3D3"/>
</g>
<defs>
<clipPath id="clip0">
<rect width="150" height="121.036" fill="white" transform="translate(0 0.803101)"/>
</clipPath>
</defs>
</svg>
