<svg width="176" height="133" viewBox="0 0 176 133" fill="none" xmlns="http://www.w3.org/2000/svg">
<g clip-path="url(#clip0)">
<path d="M82.3237 13.1715L81.7368 18.1636L173.123 36.1129L173.71 31.1208L82.3237 13.1715Z" fill="#F5F5F5"/>
<path d="M80.7479 11.1609L69.6487 105.58L164.897 124.288L175.996 29.8688L80.7479 11.1609Z" fill="url(#paint0_linear)"/>
<path d="M81.7348 18.1626L71.6135 104.262L163 122.211L173.121 36.1119L81.7348 18.1626Z" fill="#F5F5F5"/>
<path d="M85.2058 16.291C85.2851 15.617 84.9266 14.9875 84.4051 14.8851C83.8837 14.7827 83.3968 15.2461 83.3175 15.9201C83.2383 16.5941 83.5968 17.2235 84.1182 17.3259C84.6397 17.4284 85.1266 16.965 85.2058 16.291Z" fill="#FF5252"/>
<path d="M87.8018 16.7994C87.881 16.1254 87.5225 15.496 87.0011 15.3935C86.4797 15.2911 85.9927 15.7545 85.9135 16.4285C85.8342 17.1025 86.1927 17.732 86.7142 17.8344C87.2356 17.9368 87.7225 17.4734 87.8018 16.7994Z" fill="#FFFF00"/>
<path d="M90.398 17.3104C90.4772 16.6364 90.1187 16.0069 89.5973 15.9045C89.0758 15.8021 88.5889 16.2655 88.5097 16.9395C88.4304 17.6135 88.7889 18.2429 89.3104 18.3454C89.8318 18.4478 90.3187 17.9844 90.398 17.3104Z" fill="#69F0AE"/>
<path d="M84.6928 26.6172L81.0256 57.813L163.081 73.9297L166.748 42.7338L84.6928 26.6172Z" fill="url(#paint1_linear)"/>
<path d="M165.802 43.8236L85.5166 28.0546L82.1184 56.9628L162.404 72.7318L165.802 43.8236Z" fill="#23D3D3"/>
<path d="M93.606 72.6216L92.897 78.6533L98.3676 79.7278L99.0766 73.6961L93.606 72.6216Z" fill="url(#paint2_linear)"/>
<path d="M98.9521 74.097L93.804 73.0858L93.2171 78.078L98.3653 79.0891L98.9521 74.097Z" fill="#23D3D3"/>
<path d="M97.947 82.6239L92.7988 81.6128L92.212 86.6049L97.3601 87.6161L97.947 82.6239Z" fill="#FF5252"/>
<path d="M96.946 91.1514L91.7979 90.1402L91.211 95.1323L96.3591 96.1435L96.946 91.1514Z" fill="#FF9800"/>
<path opacity="0.4" d="M148.866 84.9645L107.356 76.8116L107.014 79.722L148.524 87.8749L148.866 84.9645Z" fill="#23D3D3"/>
<path opacity="0.4" d="M147.862 93.4919L106.353 85.339L106.011 88.2494L147.52 96.4023L147.862 93.4919Z" fill="#23D3D3"/>
<path opacity="0.4" d="M146.861 102.019L105.352 93.8663L105.01 96.7767L146.519 104.93L146.861 102.019Z" fill="#23D3D3"/>
<path d="M98.1834 3.05306L2.13916 30.8033L2.9776 35.6519L99.0219 7.90157L98.1834 3.05306Z" fill="#F5F5F5"/>
<path d="M100.101 0.80165L-0.000976562 29.7244L15.859 121.44L115.961 92.5168L100.101 0.80165Z" fill="url(#paint3_linear)"/>
<path d="M99.0211 7.90437L2.97681 35.6547L17.4394 119.289L113.484 91.5387L99.0211 7.90437Z" fill="#F5F5F5"/>
<path d="M5.10776 33.7345C5.65531 33.5763 6.00746 32.9176 5.8943 32.2632C5.78114 31.6088 5.24553 31.2066 4.69797 31.3648C4.15042 31.523 3.79828 32.1817 3.91144 32.8361C4.0246 33.4905 4.56021 33.8927 5.10776 33.7345Z" fill="#FF5252"/>
<path d="M7.83725 32.9483C8.38481 32.7901 8.73695 32.1314 8.62379 31.477C8.51063 30.8226 7.97502 30.4204 7.42747 30.5786C6.87991 30.7368 6.52777 31.3955 6.64093 32.0499C6.75409 32.7043 7.2897 33.1065 7.83725 32.9483Z" fill="#FFFF00"/>
<path d="M10.5643 32.1601C11.1119 32.0019 11.464 31.3432 11.3508 30.6888C11.2377 30.0344 10.7021 29.6322 10.1545 29.7904C9.60696 29.9486 9.25482 30.6073 9.36798 31.2617C9.48114 31.9161 10.0168 32.3183 10.5643 32.1601Z" fill="#69F0AE"/>
<path d="M94.5645 17.0396L8.32715 41.9564L13.5674 72.2596L99.8047 47.3428L94.5645 17.0396Z" fill="url(#paint4_linear)"/>
<path d="M93.9297 18.4949L9.55249 42.8742L14.4082 70.9539L98.7854 46.5746L93.9297 18.4949Z" fill="#23D3D3"/>
<path d="M36.0563 78.0624L30.3071 79.7235L31.32 85.5809L37.0692 83.9198L36.0563 78.0624Z" fill="url(#paint5_linear)"/>
<path d="M36.4939 78.8484L31.0596 80.4253L31.9051 85.2941L37.3394 83.7172L36.4939 78.8484Z" fill="#23D3D3"/>
<path d="M37.4744 86.7732L32.0627 88.3368L32.9012 93.1853L38.3128 91.6217L37.4744 86.7732Z" fill="#FF5252"/>
<path d="M39.3955 95.4745L33.9612 97.0514L34.8068 101.92L40.241 100.343L39.3955 95.4745Z" fill="#FF9800"/>
<path opacity="0.4" d="M88.8015 64.3058L45.1765 76.9104L45.6656 79.7387L89.2905 67.134L88.8015 64.3058Z" fill="#23D3D3"/>
<path opacity="0.4" d="M90.2338 72.5896L46.6089 85.1943L47.098 88.0226L90.7229 75.4179L90.2338 72.5896Z" fill="#23D3D3"/>
<path opacity="0.4" d="M91.666 80.8711L48.041 93.4757L48.5301 96.304L92.1551 83.6994L91.666 80.8711Z" fill="#23D3D3"/>
<path d="M145.03 5.49695H33.4187V11.5929H145.03V5.49695Z" fill="#F5F5F5"/>
<path d="M147.584 3.46503H31.2571V118.779H147.584V3.46503Z" fill="url(#paint6_linear)"/>
<path d="M145.03 11.5929H33.4187V116.747H145.03V11.5929Z" fill="white"/>
<path d="M36.1442 10.0358C36.7812 10.0358 37.2976 9.36828 37.2976 8.54485C37.2976 7.72142 36.7812 7.05389 36.1442 7.05389C35.5071 7.05389 34.9907 7.72142 34.9907 8.54485C34.9907 9.36828 35.5071 10.0358 36.1442 10.0358Z" fill="#FF5252"/>
<path d="M39.3134 10.0358C39.9504 10.0358 40.4668 9.36828 40.4668 8.54485C40.4668 7.72142 39.9504 7.05389 39.3134 7.05389C38.6763 7.05389 38.1599 7.72142 38.1599 8.54485C38.1599 9.36828 38.6763 10.0358 39.3134 10.0358Z" fill="#FFFF00"/>
<path d="M42.483 10.0358C43.1201 10.0358 43.6365 9.36828 43.6365 8.54485C43.6365 7.72142 43.1201 7.05389 42.483 7.05389C41.846 7.05389 41.3296 7.72142 41.3296 8.54485C41.3296 9.36828 41.846 10.0358 42.483 10.0358Z" fill="#69F0AE"/>
<path d="M138.349 20.9907H38.1343V59.09H138.349V20.9907Z" fill="url(#paint7_linear)"/>
<path d="M137.366 22.5147H39.3135V57.8202H137.366V22.5147Z" fill="#23D3D3"/>
<path d="M61.9109 73.8219H55.23V81.1878H61.9109V73.8219Z" fill="url(#paint8_linear)"/>
<path d="M61.8126 74.3299H55.5247V80.4258H61.8126V74.3299Z" fill="#23D3D3"/>
<path d="M61.8126 84.7437H55.5247V90.8396H61.8126V84.7437Z" fill="#FF5252"/>
<path d="M61.8126 95.1576H55.5247V101.254H61.8126V95.1576Z" fill="#FF9800"/>
<path opacity="0.4" d="M122.924 75.5999H72.2271V79.1558H122.924V75.5999Z" fill="#23D3D3"/>
<path opacity="0.4" d="M122.924 86.0137H72.2271V89.5696H122.924V86.0137Z" fill="#23D3D3"/>
<path opacity="0.4" d="M122.924 96.4275H72.2271V99.9834H122.924V96.4275Z" fill="#23D3D3"/>
<path d="M108.088 93.3795H71.5393V132.241H108.088V93.3795Z" fill="url(#paint9_linear)"/>
<path d="M79.9731 87.1999C79.9731 83.6912 81.0514 80.3263 82.9708 77.8453C84.8901 75.3643 87.4934 73.9705 90.2077 73.9705C92.9221 73.9705 95.5254 75.3643 97.4447 77.8453C99.3641 80.3263 100.442 83.6912 100.442 87.1999V95.6656H103.307V87.1999C103.329 84.9588 103.005 82.7346 102.357 80.6562C101.708 78.5777 100.746 76.6864 99.5278 75.092C98.3093 73.4975 96.858 72.2315 95.2582 71.3675C93.6583 70.5035 91.9416 70.0586 90.2077 70.0586C88.4739 70.0586 86.7572 70.5035 85.1573 71.3675C83.5575 72.2315 82.1062 73.4975 80.8877 75.092C79.6692 76.6864 78.7077 78.5777 78.0589 80.6562C77.4101 82.7346 77.0869 84.9588 77.1082 87.1999V95.6656H79.9731V87.1999Z" fill="url(#paint10_linear)"/>
<path d="M80.3816 87.0297C80.3816 83.6615 81.4167 80.4312 83.2593 78.0496C85.1018 75.6679 87.6008 74.3299 90.2065 74.3299C92.8123 74.3299 95.3113 75.6679 97.1538 78.0496C98.9964 80.4312 100.031 83.6615 100.031 87.0297V95.1575H102.782V87.0297C102.782 82.7184 101.458 78.5837 99.0991 75.5351C96.7406 72.4866 93.5419 70.7739 90.2065 70.7739C86.8712 70.7739 83.6725 72.4866 81.314 75.5351C78.9556 78.5837 77.6306 82.7184 77.6306 87.0297V95.1575H80.3816V87.0297Z" fill="white"/>
<path d="M107.302 94.6495H73.1113V130.717H107.302V94.6495Z" fill="#23D3D3"/>
<path d="M107.302 94.6495H73.1113V130.717H107.302V94.6495Z" fill="white"/>
<path d="M107.302 101.761H73.1113V123.605H107.302V101.761Z" fill="#23D3D3"/>
<path d="M92.7158 108.558C92.7177 108.028 92.6189 107.505 92.4281 107.036C92.2374 106.566 91.9604 106.165 91.6215 105.866C91.2826 105.567 90.8921 105.38 90.4844 105.322C90.0766 105.264 89.664 105.335 89.2828 105.531C88.9015 105.727 88.5632 106.041 88.2976 106.445C88.032 106.849 87.8472 107.331 87.7593 107.849C87.6715 108.367 87.6833 108.905 87.7937 109.416C87.9042 109.926 88.1099 110.394 88.3928 110.778V117.692C88.3928 118.317 88.5849 118.917 88.9269 119.359C89.2689 119.801 89.7327 120.049 90.2163 120.049C90.7 120.049 91.1638 119.801 91.5057 119.359C91.8477 118.917 92.0398 118.317 92.0398 117.692V110.778C92.4763 110.177 92.7182 109.383 92.7158 108.558Z" fill="url(#paint11_linear)"/>
<path opacity="0.2" d="M92.3684 109.127C92.369 108.671 92.2832 108.222 92.1184 107.818C91.9536 107.415 91.7149 107.069 91.4231 106.813C91.1313 106.556 90.7953 106.395 90.4445 106.345C90.0937 106.295 89.7387 106.357 89.4105 106.525C89.0824 106.693 88.7911 106.962 88.5621 107.31C88.3331 107.657 88.1733 108.071 88.0968 108.517C88.0203 108.962 88.0293 109.425 88.1231 109.865C88.2169 110.305 88.3926 110.708 88.6349 111.04V117.001C88.6349 117.54 88.8005 118.057 89.0953 118.438C89.3901 118.819 89.79 119.033 90.2069 119.033C90.6238 119.033 91.0236 118.819 91.3185 118.438C91.6133 118.057 91.7789 117.54 91.7789 117.001V111.04C92.1566 110.523 92.3674 109.839 92.3684 109.127Z" fill="black"/>
</g>
<defs>
<linearGradient id="paint0_linear" x1="117.274" y1="114.934" x2="135.542" y2="21.9232" gradientUnits="userSpaceOnUse">
<stop stop-color="#808080" stop-opacity="0.25"/>
<stop offset="0.54" stop-color="#808080" stop-opacity="0.12"/>
<stop offset="1" stop-color="#808080" stop-opacity="0.1"/>
</linearGradient>
<linearGradient id="paint1_linear" x1="13523.4" y1="51040.9" x2="16072.8" y2="38060.9" gradientUnits="userSpaceOnUse">
<stop stop-color="#808080" stop-opacity="0.25"/>
<stop offset="0.54" stop-color="#808080" stop-opacity="0.12"/>
<stop offset="1" stop-color="#808080" stop-opacity="0.1"/>
</linearGradient>
<linearGradient id="paint2_linear" x1="2744" y1="4336.9" x2="2776.87" y2="4169.58" gradientUnits="userSpaceOnUse">
<stop stop-color="#808080" stop-opacity="0.25"/>
<stop offset="0.54" stop-color="#808080" stop-opacity="0.12"/>
<stop offset="1" stop-color="#808080" stop-opacity="0.1"/>
</linearGradient>
<linearGradient id="paint3_linear" x1="53012.2" y1="42997.2" x2="43510.7" y2="10112.4" gradientUnits="userSpaceOnUse">
<stop stop-color="#808080" stop-opacity="0.25"/>
<stop offset="0.54" stop-color="#808080" stop-opacity="0.12"/>
<stop offset="1" stop-color="#808080" stop-opacity="0.1"/>
</linearGradient>
<linearGradient id="paint4_linear" x1="39117.2" y1="1908.21" x2="38079.9" y2="-1681.75" gradientUnits="userSpaceOnUse">
<stop stop-color="#808080" stop-opacity="0.25"/>
<stop offset="0.54" stop-color="#808080" stop-opacity="0.12"/>
<stop offset="1" stop-color="#808080" stop-opacity="0.1"/>
</linearGradient>
<linearGradient id="paint5_linear" x1="2225.48" y1="2435.58" x2="2186.72" y2="2301.46" gradientUnits="userSpaceOnUse">
<stop stop-color="#808080" stop-opacity="0.25"/>
<stop offset="0.54" stop-color="#808080" stop-opacity="0.12"/>
<stop offset="1" stop-color="#808080" stop-opacity="0.1"/>
</linearGradient>
<linearGradient id="paint6_linear" x1="52968.3" y1="53564.6" x2="52968.3" y2="1211.96" gradientUnits="userSpaceOnUse">
<stop stop-color="#808080" stop-opacity="0.25"/>
<stop offset="0.54" stop-color="#808080" stop-opacity="0.12"/>
<stop offset="1" stop-color="#808080" stop-opacity="0.1"/>
</linearGradient>
<linearGradient id="paint7_linear" x1="45041.4" y1="8764.04" x2="45041.4" y2="3049.13" gradientUnits="userSpaceOnUse">
<stop stop-color="#808080" stop-opacity="0.25"/>
<stop offset="0.54" stop-color="#808080" stop-opacity="0.12"/>
<stop offset="1" stop-color="#808080" stop-opacity="0.1"/>
</linearGradient>
<linearGradient id="paint8_linear" x1="2046.62" y1="2404.98" x2="2046.62" y2="2191.37" gradientUnits="userSpaceOnUse">
<stop stop-color="#808080" stop-opacity="0.25"/>
<stop offset="0.54" stop-color="#808080" stop-opacity="0.12"/>
<stop offset="1" stop-color="#808080" stop-opacity="0.1"/>
</linearGradient>
<linearGradient id="paint9_linear" x1="16776.9" y1="20203.4" x2="16776.9" y2="14257.6" gradientUnits="userSpaceOnUse">
<stop stop-color="#808080" stop-opacity="0.25"/>
<stop offset="0.54" stop-color="#808080" stop-opacity="0.12"/>
<stop offset="1" stop-color="#808080" stop-opacity="0.1"/>
</linearGradient>
<linearGradient id="paint10_linear" x1="16092" y1="14531.3" x2="16092" y2="11970.6" gradientUnits="userSpaceOnUse">
<stop stop-color="#808080" stop-opacity="0.25"/>
<stop offset="0.54" stop-color="#808080" stop-opacity="0.12"/>
<stop offset="1" stop-color="#808080" stop-opacity="0.1"/>
</linearGradient>
<linearGradient id="paint11_linear" x1="3152.8" y1="9849.22" x2="3152.8" y2="8993.89" gradientUnits="userSpaceOnUse">
<stop stop-color="#808080" stop-opacity="0.25"/>
<stop offset="0.54" stop-color="#808080" stop-opacity="0.12"/>
<stop offset="1" stop-color="#808080" stop-opacity="0.1"/>
</linearGradient>
<clipPath id="clip0">
<rect width="176" height="131.438" fill="white" transform="translate(0 0.803101)"/>
</clipPath>
</defs>
</svg>
