<svg width="160" height="125" viewBox="0 0 160 125" fill="none" xmlns="http://www.w3.org/2000/svg">
<g clip-path="url(#clip0)">
<path d="M160 123.276H0V124.676H160V123.276Z" fill="#85848B"/>
<path d="M126.762 98.5541C126.762 99.6311 121.519 102.771 115.292 102.771C109.065 102.771 104.212 99.6311 104.212 98.5541C104.212 97.477 109.26 97.8239 115.493 97.8239C121.726 97.8239 126.762 97.4752 126.762 98.5541Z" fill="#504F60"/>
<path opacity="0.2" d="M126.762 98.554C126.762 99.631 121.519 102.771 115.292 102.771C109.065 102.771 104.212 99.631 104.212 98.554" fill="black"/>
<path d="M64.0485 78.7917C65.0592 78.9469 66.108 79.0454 67.076 78.6694C67.2284 78.6128 67.3961 78.4869 67.3808 78.3043C67.3699 78.238 67.3465 78.1755 67.3123 78.1218C66.9474 77.4664 66.6408 76.7671 66.3976 76.0353C66.388 75.9971 66.3682 75.9638 66.3412 75.9404C66.3097 75.9267 66.2752 75.9267 66.2436 75.9404C65.797 76.0809 65.4113 76.4259 64.9677 76.5738C64.7415 76.6481 64.5054 76.6692 64.2726 76.6359C64.0713 76.6085 63.7969 76.4095 63.614 76.4351C63.7177 77.2328 63.9707 77.9776 64.0485 78.7917Z" fill="#6C63FF"/>
<path d="M83.1633 76.7709C83.8294 76.2233 84.52 75.6483 84.9133 74.8031C84.9414 74.7525 84.9577 74.6939 84.9605 74.6333C84.9538 74.5737 84.9344 74.5171 84.9041 74.469C84.5295 73.7558 84.0472 73.1324 83.4819 72.6308C83.1869 72.8803 82.9204 73.1749 82.6892 73.507C82.5215 73.7188 82.058 74.0547 82.0535 74.3778C82.0535 74.5603 82.2303 74.7721 82.3126 74.9254C82.4239 75.1225 82.5291 75.3233 82.6297 75.5278C82.6876 75.6282 83.2166 76.7308 83.1633 76.7709Z" fill="#6C63FF"/>
<path d="M68.0105 81.236C68.0224 81.4241 67.9793 81.6112 67.8885 81.7654C67.8174 81.8511 67.7293 81.9139 67.6324 81.9479C66.2193 82.554 64.5836 81.7983 63.1735 82.3952C62.8839 82.5175 62.6095 82.6945 62.3183 82.8114C61.9712 82.9363 61.6131 83.0123 61.2512 83.0377C60.7527 83.0943 60.2512 83.1308 59.7512 83.1473C59.3713 83.1795 58.9895 83.1394 58.6201 83.0286C58.4353 82.972 58.2626 82.8694 58.1132 82.7276C57.9637 82.5857 57.8409 82.4078 57.7527 82.2053C57.676 82.0238 57.6608 81.814 57.71 81.6194C57.7321 81.5526 57.7636 81.4909 57.803 81.4368C57.8986 81.3084 58.0108 81.1993 58.1353 81.1137L58.6551 80.7121C58.8989 80.5057 59.1638 80.3376 59.4433 80.2119C59.6491 80.1316 59.8671 80.0969 60.0759 80.0294C60.8061 79.7738 61.364 79.0802 61.8823 78.4139L62.5897 77.5103C62.6558 77.4108 62.7397 77.3304 62.8351 77.2748C62.9332 77.2356 63.0375 77.2237 63.14 77.2401C63.8271 77.2988 64.4905 77.5651 65.0684 78.0141C65.2161 78.1468 65.3756 78.2594 65.544 78.35C65.9586 78.5435 66.4907 78.3974 66.8733 78.1528C67.0547 78.036 67.0151 77.9703 67.0913 77.7622C67.1675 77.5541 67.3535 77.4208 67.5151 77.6107C67.5638 77.6763 67.5984 77.7553 67.6157 77.8407C67.7681 78.4431 67.7102 79.0911 67.7102 79.7227C67.7057 79.8215 67.716 79.9204 67.7407 80.0148C67.7796 80.11 67.826 80.2004 67.8794 80.285C67.8903 80.3073 67.8999 80.3305 67.9084 80.3543C68.0016 80.634 68.0367 80.9365 68.0105 81.236Z" fill="#514E7F"/>
<path d="M68.0105 81.236C68.0224 81.424 67.9793 81.6112 67.8885 81.7654C67.8174 81.8511 67.7293 81.9139 67.6324 81.9479C66.2193 82.554 64.5836 81.7982 63.1735 82.3951C62.8839 82.5174 62.6095 82.6945 62.3183 82.8113C61.9712 82.9363 61.6131 83.0123 61.2512 83.0377C60.7527 83.0943 60.2512 83.1308 59.7512 83.1472C59.3713 83.1794 58.9895 83.1394 58.6201 83.0286C58.4353 82.9719 58.2626 82.8694 58.1132 82.7275C57.9637 82.5857 57.8409 82.4077 57.7527 82.2053C57.676 82.0238 57.6608 81.814 57.71 81.6193C57.7321 81.5526 57.7636 81.4909 57.803 81.4368C57.8853 81.6431 57.9448 81.9169 57.9966 82.0154C58.0666 82.1615 58.1618 82.2881 58.2759 82.3866C58.39 82.4851 58.5203 82.5534 58.6582 82.5868C58.8645 82.602 59.0714 82.5704 59.268 82.4937C60.5485 82.114 61.9098 82.1085 63.14 81.5335C63.5623 81.3346 63.9647 81.0699 64.4083 80.9494C64.8519 80.8289 65.323 80.8618 65.7803 80.8161C66.5028 80.7468 67.2026 80.4857 67.9145 80.3488C68.0064 80.6307 68.0394 80.9353 68.0105 81.236Z" fill="#464353"/>
<path d="M86.3995 76.6596C86.3324 77.3021 85.9924 77.8552 85.619 78.3244C85.2455 78.7935 84.8232 79.2152 84.526 79.7555C84.1601 80.4254 83.9955 81.256 83.5198 81.8219C83.3373 82.0277 83.1321 82.2027 82.9101 82.3422C82.6613 82.5179 82.3983 82.6629 82.125 82.7748C81.4146 83.0468 80.6494 82.9847 79.907 82.919C79.6659 82.9162 79.4273 82.8612 79.2027 82.7565C79.1004 82.6943 79.0025 82.6223 78.91 82.5411C78.7239 82.4039 78.5673 82.2164 78.4527 81.9935C78.3964 81.8723 78.3806 81.7301 78.4085 81.5956C78.4509 81.4473 78.5238 81.3143 78.6204 81.2086C78.7874 81.0005 78.9667 80.8072 79.1569 80.6299C79.4179 80.4282 79.6531 80.1823 79.8551 79.8997C79.9791 79.6765 80.0703 79.4295 80.125 79.1695C80.2329 78.7141 80.2989 78.2458 80.3216 77.7731C80.3208 77.459 80.3479 77.1457 80.4024 76.8384C80.5152 76.3565 80.814 75.9257 80.7805 75.4274C80.7669 75.356 80.7722 75.2814 80.7957 75.2138C80.8312 75.161 80.8807 75.1243 80.9359 75.1097C81.1689 74.9986 81.4146 74.9302 81.6646 74.9071C81.79 74.8968 81.9158 74.9199 82.0329 74.9748C82.1499 75.0297 82.2553 75.1151 82.3415 75.2247C82.4451 75.3744 82.5137 75.5898 82.6662 75.6483C82.7417 75.6729 82.8209 75.6767 82.8979 75.6592C83.2729 75.6136 83.6692 75.557 83.965 75.2667C84.1017 75.1199 84.2115 74.9408 84.2876 74.7407C84.3637 74.5406 84.4043 74.3238 84.407 74.1039C84.407 73.9378 84.3445 73.7644 84.5595 73.7388C84.7211 73.7133 84.8491 73.9214 84.9314 74.0492C85.2287 74.5256 85.5336 75.024 85.6449 75.6044C85.6882 75.5843 85.7341 75.5738 85.7805 75.5734C85.8756 75.5724 85.9695 75.5989 86.0542 75.6508C86.1389 75.7026 86.2118 75.7781 86.2668 75.871C86.3882 76.1064 86.4353 76.3862 86.3995 76.6596Z" fill="#514E7F"/>
<path d="M86.3997 76.6596C86.3326 77.3022 85.9927 77.8553 85.6192 78.3244C85.2457 78.7936 84.8234 79.2153 84.5262 79.7556C84.1603 80.4255 83.9957 81.2561 83.5201 81.822C83.3375 82.0278 83.1323 82.2028 82.9103 82.3423C82.6615 82.518 82.3985 82.663 82.1252 82.7749C81.4148 83.0469 80.6496 82.9848 79.9072 82.9191C79.6662 82.9163 79.4275 82.8613 79.2029 82.7566C79.1006 82.6944 79.0027 82.6224 78.9102 82.5412C78.7241 82.404 78.5675 82.2164 78.4529 81.9936C78.5958 81.9113 78.7517 81.8665 78.9102 81.8622C79.2395 81.8841 79.4803 82.2565 79.7959 82.3715C80.2456 82.5339 80.6938 82.1542 81.1496 82.0246C81.4468 81.9407 81.7593 81.9626 82.0536 81.8421C82.2987 81.7286 82.5253 81.5642 82.7228 81.3565C82.9935 81.1248 83.2343 80.8468 83.4377 80.5314C83.6066 80.216 83.7472 79.8801 83.8569 79.5292C84.0977 78.8569 84.381 78.2075 84.7045 77.587C84.7524 77.4887 84.8102 77.398 84.8768 77.3168C84.9484 77.2383 85.0292 77.1835 85.11 77.1142C85.4149 76.8385 85.5414 76.384 85.6481 75.9386C85.677 75.8032 85.7174 75.6717 85.7686 75.5461C85.8637 75.5451 85.9575 75.5716 86.0422 75.6235C86.1269 75.6753 86.1998 75.7508 86.2549 75.8437C86.386 76.0847 86.4376 76.3756 86.3997 76.6596Z" fill="#464353"/>
<path d="M54.434 19.7457C54.8134 20.0862 55.1257 20.5224 55.3486 21.0235C55.562 21.5237 56.7922 25.4046 56.7206 25.9687C57.1215 25.4849 58.7023 25.4064 59.1078 24.9227C59.277 24.7201 60.1902 23.7088 60.3274 23.4733C60.4646 23.2378 61.4829 22.7431 61.5942 22.4949C62.0103 21.6022 58.6429 18.2197 59.0743 17.338C59.0982 17.2975 59.1105 17.2488 59.1094 17.1992C59.0995 17.1576 59.08 17.1202 59.0529 17.0915C58.777 16.7538 58.4112 16.5439 58.0788 16.2938C57.7465 16.0437 57.4264 15.6951 57.3365 15.235C57.0195 15.4097 56.7286 15.6453 56.4752 15.9324C55.8573 16.5664 55.25 17.2132 54.6535 17.8728C54.4202 18.132 53.969 18.477 53.8608 18.8476C53.7327 19.2456 54.2114 19.5285 54.434 19.7457Z" fill="#A1616A"/>
<path d="M59.8854 18.3091C59.3687 18.7249 58.8859 19.1979 58.4433 19.722C58.0256 20.2167 57.6292 20.7899 57.5286 21.4818C57.486 21.7538 57.4921 22.0294 57.457 22.305C57.3045 23.5007 56.4417 24.3769 56.0606 25.4959C55.9502 25.8413 55.869 26.1991 55.8182 26.5638C55.7112 27.2553 55.6525 27.9563 55.6429 28.6594C55.6338 29.3403 56.1917 29.8095 56.396 30.4447C56.6003 31.08 56.6551 31.7335 56.7588 32.3852C56.9539 33.6155 57.3122 34.8021 57.6735 35.9813C58.425 38.4676 60.861 45.3404 61.6126 47.8285C63.916 47.1366 70.0472 45.5466 72.0868 44.0881C72.7667 43.6025 67.3688 38.1244 68.0959 37.7465C68.1375 37.7388 68.177 37.7196 68.2113 37.6904C68.2456 37.6612 68.2737 37.6229 68.2935 37.5785C68.3134 37.534 68.3243 37.4847 68.3254 37.4343C68.3266 37.384 68.3179 37.334 68.3002 37.2883C67.573 33.4804 65.2986 30.3516 64.2666 26.6441C63.9083 25.3572 63.265 24.2583 62.7772 23.0352C62.3351 21.9272 62.0988 20.7023 61.5699 19.649C61.4701 19.432 61.3396 19.2374 61.1842 19.074C61.0523 18.9529 60.9096 18.8494 60.7589 18.7655C60.457 18.5903 60.1766 18.4862 59.8854 18.3091Z" fill="#514E7F"/>
<path d="M54.5559 19.3131C56.5471 19.3131 58.1612 17.3803 58.1612 14.996C58.1612 12.6116 56.5471 10.6788 54.5559 10.6788C52.5648 10.6788 50.9507 12.6116 50.9507 14.996C50.9507 17.3803 52.5648 19.3131 54.5559 19.3131Z" fill="#A1616A"/>
<path d="M58.2236 17.024C58.4033 16.8256 58.629 16.697 58.8709 16.6553C59.1129 16.6136 59.3597 16.6607 59.5788 16.7903C59.8228 16.9419 60.0362 17.2485 59.9813 17.5698L61.7694 17.6027C62.054 17.5933 62.3386 17.6246 62.617 17.6958C62.8972 17.7688 63.1474 17.9567 63.3243 18.227C63.3457 18.2617 63.3701 18.3036 63.4067 18.3091C63.4364 18.3097 63.4654 18.2981 63.489 18.2763C63.7641 18.1111 64.0739 18.0475 64.3792 18.0937C65.3457 18.1686 66.239 18.7472 66.9967 19.4701C67.1333 19.5826 67.2393 19.7406 67.3016 19.9246C67.3641 20.1674 67.2894 20.4723 67.454 20.6457C67.454 22.6537 68.0302 24.5302 68.4144 26.4871C68.483 26.8358 68.7619 27.1443 68.9555 27.4181C69.1947 27.7217 69.39 28.0709 69.5333 28.4513C69.8595 29.4663 69.4098 30.6601 69.7269 31.6787C69.861 32.1095 70.1202 32.4636 70.3367 32.8379C70.622 33.27 70.8024 33.7879 70.858 34.3347C70.8717 34.5793 70.8458 34.8258 70.858 35.0649C70.8785 35.3938 70.9296 35.7189 71.0105 36.0342C71.1405 36.6232 71.2767 37.2116 71.419 37.7994C71.6507 38.7487 71.9526 39.7727 72.6629 40.2784C70.948 40.627 69.14 40.9684 67.5058 40.2547C67.2779 40.1615 67.0615 40.032 66.8625 39.8695C66.2726 39.3657 65.9875 38.504 65.7329 37.6899C65.4494 36.7772 65.1613 35.848 65.1033 34.8769C65.1039 34.568 65.0674 34.2606 64.9951 33.9642C64.8289 33.4348 64.3853 33.1153 63.9829 32.8214C63.5284 32.5232 63.1167 32.1399 62.7634 31.686C62.588 31.4574 62.4537 31.1881 62.3688 30.8948C62.2838 30.6016 62.25 30.2906 62.2694 29.981C62.2999 29.6798 62.399 29.3896 62.4082 29.0866C62.4173 28.7835 62.3045 28.4367 62.0621 28.3564C60.8136 27.9037 60.2176 26.133 59.9401 24.6069C59.8204 23.8182 59.7668 23.0171 59.7801 22.2156L59.7633 20.6585C59.591 20.4708 59.4524 20.2431 59.356 19.9892C59.2595 19.7353 59.2073 19.4605 59.2023 19.1817C59.2189 19.019 59.2163 18.8543 59.1947 18.6925C59.1344 18.4946 59.0362 18.3165 58.9081 18.1722C58.6324 17.8335 58.4016 17.4462 58.2236 17.024Z" fill="#464353"/>
<path d="M54.3836 21.96C54.3424 22.442 54.4339 22.9366 54.344 23.4094C54.3089 23.592 54.2479 23.7745 54.2037 23.9443C54.0686 24.6248 54.127 25.3398 54.3699 25.976C54.6124 26.6059 54.9027 27.2078 55.2373 27.7741C55.3504 27.9674 55.4436 28.1764 55.5147 28.3966C55.5724 28.6277 55.6082 28.8659 55.6214 29.1067C55.7097 30.0733 55.8513 31.032 56.0452 31.9763C56.216 32.7941 58.155 39.7855 58.6062 40.4336C58.6881 40.577 58.8123 40.6781 58.9538 40.7165C59.0559 40.7211 59.1573 40.6961 59.2496 40.6435L60.1642 40.2236C60.242 40.1951 60.3141 40.1479 60.3761 40.0849C60.4618 39.965 60.5084 39.8119 60.5072 39.6541C60.5727 38.7633 58.6291 31.7225 58.3822 30.881C57.6352 28.34 56.6413 25.8902 56.155 23.2598C56.0193 22.5296 55.9477 21.4051 55.501 20.8228C55.3165 20.5818 55.379 20.684 55.158 20.81C55.0463 20.868 54.9383 20.9358 54.8348 21.0126C54.7054 21.1203 54.5978 21.2613 54.5197 21.4252C54.4416 21.5891 54.3951 21.7718 54.3836 21.96Z" fill="#464353"/>
<path d="M57.1596 26.7811C57.405 28.3345 57.658 29.8843 57.9096 31.4378L61.4889 30.3151C61.5179 29.8661 61.3182 29.4499 61.184 29.0373C60.8578 28.0571 60.8502 26.9654 60.5865 25.9578C60.3868 25.1911 60.0392 24.4865 59.8517 23.7143C59.7435 23.2653 59.6886 22.8016 59.5819 22.3471C59.4674 21.9007 59.3268 21.4645 59.1611 21.0419C58.9602 20.4289 58.6981 19.8472 58.3806 19.3095C57.9233 19.514 57.4355 19.7513 57.1748 20.246C57.0411 20.5247 56.9648 20.8376 56.9522 21.1587C56.8897 22.1207 57.1809 23.0882 57.0849 24.0447C56.986 24.9557 57.0112 25.8798 57.1596 26.7811Z" fill="#6C63FF"/>
<path d="M61.5482 47.4451C61.7495 48.3578 61.4583 49.318 61.2205 50.2216C60.8625 51.5827 60.6184 52.983 60.4918 54.4019C60.4763 54.763 60.4157 55.1193 60.3119 55.4588C60.1991 55.7637 60.0071 56.0211 59.876 56.3113C59.5162 57.0744 59.5253 58.0053 59.6031 58.8779C59.6549 59.4529 59.7327 60.0261 59.8287 60.592C59.9461 61.2838 60.0909 62.0067 59.9217 62.6821C60.2052 62.6073 60.3973 63.0472 60.379 63.3922C60.3607 63.7372 60.2677 64.1224 60.4065 64.42C60.7571 64.5733 60.7601 65.1501 60.7495 65.5974C60.7553 66.3728 60.8371 67.1448 60.9934 67.8974C61.5239 70.952 62.0869 73.9981 62.6824 77.0356C63.9705 77.5139 65.4752 78.0122 66.7038 77.3496C66.9325 77.2273 67.1612 77.032 67.213 76.7363C67.2264 76.5769 67.2097 76.4159 67.1642 76.2653L66.5819 73.7279C66.4401 73.1146 66.2983 72.4811 66.373 71.8514C66.4294 71.3822 66.6002 70.8766 66.4081 70.4622C66.3426 70.3198 66.2389 70.2085 66.1627 70.0734C65.8578 69.5385 66.0178 68.8229 66.0422 68.1749C66.0517 68.0294 66.0435 67.8831 66.0179 67.7404C65.9761 67.5739 65.9177 67.4139 65.8441 67.264C65.3628 66.1452 65.1317 64.8962 65.1733 63.6387C65.1915 63.4782 65.1731 63.3148 65.12 63.1659C65.083 63.1044 65.0499 63.0397 65.0209 62.9724C64.9981 62.8552 65.0094 62.7322 65.0529 62.6237C64.8782 62.465 64.7205 62.281 64.5834 62.0761C64.6679 62.0131 64.7394 61.928 64.7925 61.8271C64.8455 61.7263 64.8787 61.6123 64.8896 61.4938C64.9005 61.3752 64.8887 61.2553 64.8552 61.1431C64.8217 61.0308 64.7673 60.9291 64.6962 60.8457C64.7583 60.8307 64.8158 60.7954 64.8622 60.7436C64.9086 60.6919 64.9422 60.6257 64.9591 60.5525C64.976 60.4793 64.9756 60.402 64.958 60.329C64.9404 60.2561 64.9062 60.1904 64.8593 60.1393C64.7846 60.0772 64.6855 60.0498 64.6321 59.9567C64.5498 59.8217 64.6169 59.6336 64.684 59.4894L65.0392 58.7209C65.3044 58.1495 65.3639 57.4431 65.6489 56.8955C66.0575 56.0977 66.3243 55.2088 66.588 54.3289L67.6139 50.939L68.3045 51.6564C68.5345 51.8669 68.7273 52.1299 68.8716 52.4304C68.9697 52.7274 69.0319 53.0397 69.056 53.3577C69.3091 55.1978 70.2755 56.7932 70.6338 58.6059C70.7131 59.0093 70.7664 59.4328 70.96 59.7778C71.0293 59.8838 71.0915 59.9961 71.146 60.1137C71.1964 60.2932 71.2227 60.4811 71.2237 60.6705C71.2557 61.0413 71.3539 61.3994 71.5118 61.7207C71.6696 62.042 71.8833 62.3188 72.1384 62.5324C72.4783 62.8117 72.9006 63.0034 73.0851 63.4452C73.1219 63.582 73.1732 63.7126 73.2375 63.834C73.4021 64.0713 73.7573 64.0987 73.8274 64.3962C73.8671 64.5623 73.7939 64.7613 73.8717 64.9074C73.9158 64.9749 73.9742 65.0272 74.0409 65.0589L75.0333 65.6521C76.143 66.3166 76.7101 67.8427 77.5287 68.9544C77.8114 69.3165 78.0618 69.7129 78.2757 70.1373C78.6294 70.8948 78.7925 71.8459 79.3901 72.3278C79.5507 72.4275 79.6969 72.5576 79.823 72.713C80.0105 73.0087 79.9419 73.4231 79.9587 73.7955C79.9754 74.1679 80.2132 74.6114 80.509 74.4983C80.4053 74.9493 80.4053 75.4254 80.509 75.8765C81.8073 75.7966 83.0455 75.1961 84.0243 74.1715C84.3139 73.8685 84.5929 73.4815 84.5959 73.0215C84.6004 72.9421 84.5856 72.8628 84.5533 72.7933C84.4946 72.7034 84.4174 72.6336 84.3292 72.5907C83.4008 71.9883 83.1218 70.5918 82.6523 69.4582C82.2422 68.4578 81.6355 67.5962 81.1279 66.6671C80.0242 64.6682 79.2711 62.2495 77.6019 60.9297C77.2345 60.6395 76.8077 60.3821 76.6232 59.902C76.5211 59.6336 76.5089 59.327 76.4281 59.0495C76.3473 58.772 76.1537 58.5019 75.9068 58.5019C76.044 58.1003 76.0165 57.611 76.0257 57.1766C76.035 56.9838 76.0165 56.7905 75.9708 56.6052C75.9074 56.4059 75.825 56.2161 75.7253 56.0393C75.2898 55.1563 75.0721 54.1437 75.0973 53.1186C75.1095 52.5911 75.1872 52.0471 75.0546 51.5433C74.9875 51.2895 74.8701 51.0577 74.7894 50.8131C74.6676 50.3698 74.6033 49.9069 74.5988 49.4403L74.5073 47.6861C74.4935 47.1018 74.4302 46.5208 74.3183 45.9519C74.0134 44.5901 73.7085 38.8856 72.6643 38.243C71.6201 37.6005 69.8258 41.9907 68.6505 42.0765C68.1306 42.1024 67.6168 42.2211 67.1261 42.4288C66.3441 42.7793 65.6886 43.4328 65.0498 44.0717L62.8882 46.2458C62.4309 46.6967 62.0528 47.1275 61.5482 47.4451Z" fill="#464353"/>
<path d="M51.1735 10.2024C51.6491 9.42473 52.4662 9.01218 53.2711 8.97749C54.076 8.94281 54.8687 9.24584 55.5897 9.67482C55.8026 9.81974 56.03 9.9314 56.2666 10.007C56.6477 10.1001 57.0715 9.97601 57.416 10.1896C57.8733 10.4798 57.9617 11.2191 57.9221 11.8325C57.8825 12.4458 57.7864 13.1267 58.0593 13.6579C58.1561 13.8094 58.2442 13.9686 58.323 14.1344C58.4404 14.4502 58.3718 14.8153 58.3017 15.1493C58.1233 14.9668 58.0227 14.6911 57.8642 14.4794C57.7056 14.2676 57.4297 14.1253 57.2331 14.2841C57.0364 14.4429 57.0395 14.7313 57.0288 14.9905C57.0181 15.2497 56.9633 15.5601 56.759 15.644C56.6737 15.6673 56.5845 15.6594 56.5029 15.6213C56.4214 15.5832 56.3513 15.5167 56.3017 15.4305C55.9526 14.9193 56.0928 14.1034 55.7468 13.5886C55.5501 13.2965 55.2224 13.1541 55.041 12.8474C54.8977 12.6065 54.8611 12.2998 54.7361 12.0406C54.6111 11.7814 54.3199 11.5915 54.1263 11.7704C54.0602 11.846 54.0051 11.9342 53.9632 12.0315C53.8425 12.2385 53.6669 12.3908 53.465 12.4637C53.2631 12.5366 53.0465 12.5258 52.8504 12.4331C52.7005 12.3229 52.5383 12.2387 52.3686 12.183C52.2576 12.1763 52.1472 12.207 52.05 12.2715C51.9527 12.336 51.8725 12.4318 51.8183 12.5481C51.7089 12.7803 51.6561 13.0447 51.6659 13.3111C51.6659 13.6762 51.7208 14.065 51.547 14.3571C51.4809 14.467 51.3982 14.5612 51.3031 14.6346C51.0485 14.8299 50.6933 14.9613 50.4585 14.7386C50.379 14.6499 50.3198 14.5381 50.2867 14.4141C50.2536 14.29 50.2477 14.1579 50.2695 14.0303C50.3152 13.7763 50.3753 13.5262 50.4494 13.2819C50.5836 12.716 50.4082 12.0789 50.5546 11.5459C50.7079 11.0659 50.9162 10.6137 51.1735 10.2024Z" fill="#464353"/>
<path d="M53.1047 23.0808C53.0818 23.2139 53.0935 23.3521 53.1382 23.477C53.1835 23.562 53.2452 23.6327 53.3181 23.6832C53.8307 24.0657 54.4138 24.2919 55.0163 24.3422C55.0983 24.3439 55.1788 24.3689 55.2511 24.4152C55.3944 24.5284 55.4035 24.7803 55.3501 24.9811C55.279 25.1705 55.2421 25.3758 55.2419 25.5835C55.2861 25.965 55.6642 26.1312 55.9828 26.1877C56.4294 26.2553 56.9188 26.2206 57.2724 25.8865C57.512 25.6249 57.6946 25.2972 57.8045 24.9318C58.6795 22.5241 58.9859 19.8626 59.8716 17.4621C59.9387 17.3054 59.9835 17.1363 60.0042 16.9619C60.0136 16.8746 60.0032 16.7859 59.9743 16.705C59.9453 16.6241 59.8988 16.554 59.8396 16.5019C59.6749 16.3796 59.4188 16.449 59.3075 16.2573C59.2527 16.1606 59.2588 16.0291 59.21 15.9269C59.1078 15.7097 58.8395 15.7444 58.6566 15.6184C58.5133 15.5271 58.4142 15.3391 58.2542 15.3026C58.1756 15.2973 58.0971 15.314 58.0248 15.3514C57.9526 15.3888 57.8886 15.4458 57.838 15.518C57.3182 16.0985 57.0453 16.9218 56.7557 17.6994C56.3134 18.8914 55.7956 20.0412 55.2069 21.1386C55.2755 21.0108 54.8776 20.0433 54.7221 20.0013C54.4492 19.9356 54.1001 20.5088 53.9523 20.7224C53.4882 21.396 53.1942 22.2142 53.1047 23.0808Z" fill="#6C63FF"/>
<path opacity="0.1" d="M58.6428 15.7883C58.5334 15.7905 58.4257 15.8221 58.3278 15.8809C58.2299 15.9397 58.1443 16.024 58.0773 16.1278C57.9142 16.3815 57.8822 16.7174 57.841 17.0405C57.7022 18.0642 57.3972 19.0453 56.9431 19.9284" fill="black"/>
<path opacity="0.1" d="M59.4205 16.5166C59.2694 16.5206 59.1217 16.5717 58.9921 16.6649C58.8624 16.758 58.7553 16.89 58.6812 17.0478C58.5803 17.3349 58.5175 17.6392 58.4952 17.9496C58.3645 18.6377 58.1124 19.2844 57.7559 19.8462" fill="black"/>
<path d="M95.6496 52.2041V49.9368C95.6492 48.2679 95.0953 46.6674 94.1096 45.4874C93.1239 44.3074 91.7872 43.6445 90.3934 43.6445H15.6222C14.2284 43.6445 12.8917 44.3074 11.906 45.4874C10.9203 46.6674 10.3664 48.2679 10.366 49.9368V54.1171L95.6496 52.2041Z" fill="#33323D"/>
<path d="M36.4228 40.9867C36.4228 40.9867 36.2094 56.8425 38.557 62.0596C40.9046 67.2768 41.9107 89.9726 41.9107 89.9726C41.9107 89.9726 66.5209 93.0211 83.6706 86.3217C100.82 79.6223 137.312 76.8823 137.312 76.8823L131.162 27.2502C131.162 27.2502 100.782 24.9173 83.4999 34.7875C66.2176 44.6577 36.4228 40.9867 36.4228 40.9867Z" fill="#23D3D3"/>
<path opacity="0.1" d="M36.4228 40.9867C36.4228 40.9867 36.2094 56.8425 38.557 62.0596C40.9046 67.2768 41.9107 89.9726 41.9107 89.9726C41.9107 89.9726 66.5209 93.0211 83.6706 86.3217C100.82 79.6223 137.312 76.8823 137.312 76.8823L131.162 27.2502C131.162 27.2502 100.782 24.9173 83.4999 34.7875C66.2176 44.6577 36.4228 40.9867 36.4228 40.9867Z" fill="black"/>
<path d="M41.8697 46.7789C41.8697 46.7789 41.0999 59.8619 43.0313 64.0421C44.9628 68.2224 45.0527 86.884 45.0527 86.884C45.0527 86.884 67.201 88.1143 82.9559 81.6924C98.7107 75.2705 131.818 71.1048 131.818 71.1048L128.056 30.516C128.056 30.516 100.662 30.1783 84.6739 39.2179C68.6858 48.2575 41.8697 46.7789 41.8697 46.7789Z" fill="#23D3D3"/>
<path opacity="0.1" d="M84.4304 74.2609C87.5818 73.7908 89.454 66.8487 88.6121 58.7552C87.7703 50.6616 84.5331 44.4816 81.3818 44.9516C78.2305 45.4216 76.3582 52.3638 77.2001 60.4573C78.042 68.5508 81.2791 74.7309 84.4304 74.2609Z" fill="black"/>
<path opacity="0.2" d="M114.507 3.07208C114.507 3.07208 84.9924 12.0168 71.0745 27.7613C57.1565 43.5057 27.8572 50.9609 27.8572 50.9609C27.8572 50.9609 31.717 66.1285 35.2872 70.2321C38.8574 74.3357 45.6289 95.5693 45.6289 95.5693C45.6289 95.5693 69.8321 89.4249 84.436 76.7417C99.0399 64.0584 133.076 48.0402 133.076 48.0402L114.507 3.07208Z" fill="black"/>
<path d="M27.4138 48.6901C27.4138 48.6901 31.2721 63.8595 34.8393 67.9631C38.4064 72.0667 45.1809 93.2985 45.1809 93.2985C45.1809 93.2985 69.3872 87.1559 83.9926 74.4727C98.5981 61.7895 132.631 45.7766 132.631 45.7766L114.062 0.803101C114.062 0.803101 84.549 9.74779 70.6311 25.4923C56.7131 41.2368 27.4138 48.6901 27.4138 48.6901Z" fill="#23D3D3"/>
<path opacity="0.1" d="M27.4138 48.6901C27.4138 48.6901 31.2721 63.8595 34.8393 67.9631C38.4064 72.0667 45.1809 93.2985 45.1809 93.2985C45.1809 93.2985 69.3872 87.1559 83.9926 74.4727C98.5981 61.7895 132.631 45.7766 132.631 45.7766L114.062 0.803101C114.062 0.803101 84.549 9.74779 70.6311 25.4923C56.7131 41.2368 27.4138 48.6901 27.4138 48.6901Z" fill="black"/>
<path d="M34.0769 52.2022C34.0769 52.2022 36.6974 64.9384 39.6075 68.2059C42.5176 71.4735 47.382 89.1985 47.382 89.1985C47.382 89.1985 68.7757 82.229 82.1251 70.3271C95.4744 58.4252 125.92 42.3119 125.92 42.3119L111.94 5.0509C111.94 5.0509 85.7822 14.7933 72.881 29.2728C59.9798 43.7522 34.0769 52.2022 34.0769 52.2022Z" fill="#23D3D3"/>
<path opacity="0.1" d="M81.6317 62.7184C84.5106 61.1131 84.5135 53.8179 81.6382 46.4242C78.763 39.0305 74.0983 34.3381 71.2195 35.9434C68.3406 37.5487 68.3377 44.8439 71.2129 52.2376C74.0882 59.6313 78.7528 64.3237 81.6317 62.7184Z" fill="black"/>
<path opacity="0.1" d="M97.668 54.4292V117.407C97.668 118.122 97.5503 118.831 97.3217 119.491C97.0931 120.152 96.758 120.753 96.3356 121.258C95.9132 121.764 95.4117 122.165 94.8598 122.439C94.3079 122.712 93.7164 122.853 93.1191 122.852H14.9164C13.7107 122.852 12.5544 122.278 11.702 121.257C10.8495 120.236 10.3706 118.851 10.3706 117.407V48.0803C12.6115 49.077 12.6115 49.077 14.9164 48.993H93.1191C94.324 48.993 95.4796 49.5654 96.3325 50.5846C97.1853 51.6038 97.6656 52.9865 97.668 54.4292Z" fill="black"/>
<path d="M97.668 55.2307V118.209C97.6676 119.653 97.1882 121.038 96.3351 122.059C95.4821 123.08 94.3253 123.654 93.1191 123.654H14.9164C13.7107 123.653 12.5544 123.08 11.702 122.058C10.8495 121.037 10.3706 119.652 10.3706 118.209V48.8799C12.6115 49.8748 12.6115 49.8748 14.9164 49.7927H93.1191C94.3243 49.7927 95.4801 50.3653 96.333 51.3849C97.1858 52.4044 97.666 53.7876 97.668 55.2307Z" fill="#504F60"/>
<path opacity="0.1" d="M97.4454 78.5142V98.6544H81.1342C78.9234 98.6187 76.8134 97.5421 75.2606 95.6575C73.7078 93.7728 72.8372 91.2318 72.8372 88.5843C72.8372 85.9368 73.7078 83.3958 75.2606 81.5111C76.8134 79.6265 78.9234 78.5499 81.1342 78.5142H97.4454Z" fill="black"/>
<path d="M97.6681 77.9776V98.1214H81.3568C79.1461 98.0858 77.036 97.0091 75.4832 95.1245C73.9304 93.2399 73.0598 90.6988 73.0598 88.0513C73.0598 85.4038 73.9304 82.8628 75.4832 80.9782C77.036 79.0935 79.1461 78.0169 81.3568 77.9813L97.6681 77.9776Z" fill="#33323D"/>
<path opacity="0.1" d="M82.1389 92.5118C83.9499 92.5118 85.4179 90.7538 85.4179 88.5852C85.4179 86.4167 83.9499 84.6587 82.1389 84.6587C80.3279 84.6587 78.8599 86.4167 78.8599 88.5852C78.8599 90.7538 80.3279 92.5118 82.1389 92.5118Z" fill="black"/>
<path d="M82.3613 91.9787C84.1723 91.9787 85.6403 90.2207 85.6403 88.0522C85.6403 85.8836 84.1723 84.1256 82.3613 84.1256C80.5503 84.1256 79.0823 85.8836 79.0823 88.0522C79.0823 90.2207 80.5503 91.9787 82.3613 91.9787Z" fill="#6C63FF"/>
<path d="M125.981 77.8042C126.111 79.4854 125.048 81.1174 125.358 82.7639C125.425 83.1162 125.551 83.4485 125.597 83.8044C125.725 84.7829 125.239 85.7084 124.774 86.5262L120.78 93.5432C120.62 93.8517 120.428 94.135 120.21 94.3866C119.447 95.2007 118.301 95.1167 117.298 95.3595C116.593 95.5309 115.927 95.8834 115.347 96.3927C115.323 96.4176 115.307 96.4526 115.304 96.4906C115.3 96.5286 115.309 96.5667 115.328 96.5972C115.494 96.8675 115.714 97.0838 115.967 97.2263C116.221 97.3688 116.5 97.4331 116.78 97.4131C116.885 97.5793 116.78 97.822 116.627 97.9407C116.412 98.1232 116.118 98.167 116.075 98.6015C116.06 98.7531 116.086 98.9066 116.149 99.0396C116.31 99.3347 116.56 99.5435 116.847 99.6219C118.229 100.128 119.723 99.2386 120.758 98.0283C121.794 96.8181 122.536 95.2902 123.551 94.058C124.114 93.3771 124.752 92.7929 125.332 92.1321C126.487 90.8141 127.385 89.2114 128.253 87.6068C128.513 87.1231 128.775 86.6266 128.885 86.0662C128.995 85.5057 128.943 84.9399 129.067 84.3977C129.228 83.6858 129.663 83.1199 130.024 82.523C130.733 81.3547 131.205 79.9254 131.112 78.4869C131.019 77.0484 130.274 75.6264 129.14 75.1372C128.788 74.9682 128.4 74.94 128.035 75.0569C127.57 75.2285 127.227 75.6885 126.909 76.1284L126.147 77.1781C125.957 77.4084 125.807 77.6813 125.705 77.9813C125.656 78.1319 125.645 78.2961 125.672 78.4544C125.699 78.6127 125.763 78.7583 125.858 78.8739" fill="#FBBEBE"/>
<path opacity="0.05" d="M125.981 77.8042C126.111 79.4854 125.048 81.1174 125.358 82.7639C125.425 83.1162 125.551 83.4485 125.597 83.8044C125.725 84.7829 125.239 85.7084 124.774 86.5262L120.78 93.5432C120.62 93.8517 120.428 94.135 120.21 94.3866C119.447 95.2007 118.301 95.1167 117.298 95.3595C116.593 95.5309 115.927 95.8834 115.347 96.3927C115.323 96.4176 115.307 96.4526 115.304 96.4906C115.3 96.5286 115.309 96.5667 115.328 96.5972C115.494 96.8675 115.714 97.0838 115.967 97.2263C116.221 97.3688 116.5 97.4331 116.78 97.4131C116.885 97.5793 116.78 97.822 116.627 97.9407C116.412 98.1232 116.118 98.167 116.075 98.6015C116.06 98.7531 116.086 98.9066 116.149 99.0396C116.31 99.3347 116.56 99.5435 116.847 99.6219C118.229 100.128 119.723 99.2386 120.758 98.0283C121.794 96.8181 122.536 95.2902 123.551 94.058C124.114 93.3771 124.752 92.7929 125.332 92.1321C126.487 90.8141 127.385 89.2114 128.253 87.6068C128.513 87.1231 128.775 86.6266 128.885 86.0662C128.995 85.5057 128.943 84.9399 129.067 84.3977C129.228 83.6858 129.663 83.1199 130.024 82.523C130.733 81.3547 131.205 79.9254 131.112 78.4869C131.019 77.0484 130.274 75.6264 129.14 75.1372C128.788 74.9682 128.4 74.94 128.035 75.0569C127.57 75.2285 127.227 75.6885 126.909 76.1284L126.147 77.1781C125.957 77.4084 125.807 77.6813 125.705 77.9813C125.656 78.1319 125.645 78.2961 125.672 78.4544C125.699 78.6127 125.763 78.7583 125.858 78.8739" fill="black"/>
<path d="M129.004 121.086C128.132 121.723 127.045 121.761 126.031 121.613C125.868 121.589 125.675 121.575 125.574 121.726C125.422 121.945 125.602 122.274 125.788 122.444C126.385 122.981 127.088 123.327 127.829 123.449C128.49 123.562 129.158 123.615 129.826 123.608C131.655 123.647 133.484 123.683 135.285 123.369C135.391 123.359 135.495 123.323 135.59 123.263C135.706 123.166 135.786 123.019 135.815 122.853C135.939 122.29 135.701 121.688 135.341 121.297C134.981 120.907 134.519 120.689 134.068 120.479L132.483 119.74C132.111 119.567 131.515 119.107 131.111 119.143C130.352 119.209 129.634 120.644 129.004 121.086Z" fill="#3F3D56"/>
<path opacity="0.05" d="M129.004 121.086C128.132 121.723 127.045 121.761 126.031 121.613C125.868 121.589 125.675 121.575 125.574 121.726C125.422 121.945 125.602 122.274 125.788 122.444C126.385 122.981 127.088 123.327 127.829 123.449C128.49 123.562 129.158 123.615 129.826 123.608C131.655 123.647 133.484 123.683 135.285 123.369C135.391 123.359 135.495 123.323 135.59 123.263C135.706 123.166 135.786 123.019 135.815 122.853C135.939 122.29 135.701 121.688 135.341 121.297C134.981 120.907 134.519 120.689 134.068 120.479L132.483 119.74C132.111 119.567 131.515 119.107 131.111 119.143C130.352 119.209 129.634 120.644 129.004 121.086Z" fill="black"/>
<path d="M130.115 95.8834C129.455 96.9348 128.772 98.1487 128.936 99.4503C129.024 100.151 129.352 100.77 129.593 101.418C129.919 102.298 130.09 103.244 130.257 104.185C130.504 105.562 130.753 106.942 130.904 108.34C131.076 109.919 130.266 114.488 130.192 116.078C130.173 116.462 130.135 116.876 129.913 117.152C129.826 117.261 129.71 117.349 129.67 117.491C129.647 117.628 129.666 117.771 129.724 117.893C130.096 118.897 130.856 119.645 131.705 120.072C132.555 120.5 134.602 121.237 135.527 121.275C135.649 121.291 135.773 121.272 135.887 121.219C136.01 121.129 136.107 120.996 136.164 120.837C136.828 119.318 136.19 113.919 136.199 112.205C136.209 110.775 136.491 109.355 136.439 107.928C136.396 106.781 136.134 105.66 136.047 104.518C135.895 102.645 136.181 100.763 136.469 98.9118C136.689 97.4916 136.91 96.0714 137.192 94.6694C137.364 93.8133 137.564 92.9499 137.954 92.2069C138.259 91.6173 138.687 91.1244 139.042 90.564C140.028 89.0162 140.466 87.0663 140.262 85.1351C140.241 84.9526 137.975 85.8233 137.776 85.9274C136.961 86.3405 136.211 86.9178 135.559 87.6342C135.035 88.2329 134.622 89.0324 134.163 89.7024C133.513 90.6504 132.872 91.6051 132.239 92.5665C131.516 93.6654 130.809 94.771 130.115 95.8834Z" fill="#464353"/>
<path opacity="0.05" d="M130.115 95.8195C129.455 96.8709 128.772 98.0867 128.936 99.3864C129.024 100.089 129.352 100.708 129.593 101.356C129.919 102.234 130.09 103.181 130.257 104.122C130.504 105.5 130.753 106.88 130.904 108.276C131.076 109.857 130.266 114.424 130.192 116.014C130.173 116.398 130.135 116.814 129.913 117.09C129.826 117.197 129.71 117.285 129.67 117.427C129.647 117.564 129.666 117.707 129.724 117.829C130.096 118.835 130.856 119.581 131.705 120.019C132.555 120.458 134.602 120.839 135.527 120.876C135.649 120.892 135.773 120.872 135.887 120.819C136.01 120.73 136.107 120.597 136.164 120.439C136.827 118.921 136.19 113.868 136.199 112.152C136.209 110.721 136.491 109.302 136.439 107.873C136.396 106.727 136.134 105.606 136.047 104.465C135.895 102.59 136.181 100.708 136.469 98.857C136.689 97.4386 136.91 96.0185 137.192 94.6147C137.364 93.7585 137.564 92.8951 137.954 92.1522C138.259 91.5625 138.687 91.0697 139.042 90.5093C140.029 88.9616 140.467 87.0116 140.262 85.0804C140.241 84.8978 137.975 85.7686 137.776 85.8726C136.961 86.2871 136.211 86.8649 135.559 87.5812C135.035 88.1782 134.622 88.9777 134.163 89.6476C133.513 90.5957 132.872 91.551 132.239 92.5136C131.516 93.604 130.809 94.706 130.115 95.8195Z" fill="black"/>
<path d="M122.771 72.7257C124.814 72.7257 126.47 70.7422 126.47 68.2954C126.47 65.8485 124.814 63.865 122.771 63.865C120.727 63.865 119.071 65.8485 119.071 68.2954C119.071 70.7422 120.727 72.7257 122.771 72.7257Z" fill="#FBBEBE"/>
<path d="M126.103 68.1092C126.445 68.7621 126.893 69.3259 127.421 69.7669C127.949 70.2078 128.545 70.517 129.175 70.6758L128.896 71.8897C128.414 73.9744 127.873 76.1796 126.529 77.6253C126.681 76.9189 126.486 76.165 126.154 75.5516C125.821 74.9382 125.355 74.4563 124.897 73.9799L122.768 71.7711C122.706 71.7112 122.655 71.6382 122.615 71.5557C122.563 71.4 122.563 71.2259 122.615 71.0701C122.887 70.0588 123.661 69.4272 124.292 68.7445C124.609 68.3915 124.892 67.9972 125.135 67.5689C125.561 66.8424 125.824 67.5726 126.103 68.1092Z" fill="#FBBEBE"/>
<path d="M117.897 63.8413L117.813 63.0089C118.397 63.1914 118.952 62.5963 119.326 61.9811C119.699 61.366 120.045 60.6413 120.614 60.3839C121.304 60.0736 122.036 60.5664 122.696 60.9826C123.435 61.4737 124.246 61.7897 125.085 61.9136C125.219 61.9189 125.351 61.9447 125.48 61.9903C125.909 62.1728 126.114 62.819 126.176 63.405C126.239 63.991 126.222 64.6134 126.434 65.1355C126.586 65.5316 126.87 65.8255 127.044 66.2162C127.501 67.264 127.059 68.697 127.536 69.7247L126.35 68.4231C126.242 68.3045 126.089 68.1804 125.969 68.2808C125.874 68.3611 125.867 68.5345 125.829 68.6732C125.714 69.0785 125.291 69.199 124.984 69.0383C124.678 68.8777 124.454 68.529 124.222 68.2114C123.698 67.4703 123.073 66.8186 122.341 66.5028C122.02 66.3592 121.677 66.2989 121.336 66.326C120.994 66.3531 120.661 66.4668 120.359 66.6598C119.806 67.034 119.4 67.9065 118.722 67.9376C117.792 67.9796 117.405 65.9059 116.975 65.0862C117.132 64.9445 117.243 64.741 117.287 64.5114C117.332 64.2817 117.308 64.0406 117.219 63.8303C117.281 63.7993 117.883 63.7135 117.897 63.8413Z" fill="#464353"/>
<path d="M72.1358 37.94C71.8385 38.2566 71.5637 38.6022 71.3141 38.9732C71.0629 39.3494 70.9292 39.8187 70.936 40.3003C70.9374 40.44 70.9746 40.5758 71.0428 40.6891C71.0776 40.7434 71.1257 40.7833 71.1803 40.8033C71.235 40.8232 71.2935 40.8223 71.3476 40.8005C71.4089 40.7631 71.4613 40.7079 71.5001 40.6398C71.6612 40.408 71.8322 40.1862 72.0123 39.9754C72.0778 39.8969 72.1647 39.8147 72.2531 39.844C72.2928 39.8608 72.3284 39.889 72.3568 39.9261C72.4594 40.0323 72.534 40.1718 72.5718 40.3277C72.6251 40.607 72.4894 40.8863 72.3355 41.1053C72.1815 41.3244 72.0001 41.5343 71.9376 41.81C71.9139 41.8828 71.9139 41.9635 71.9376 42.0363C71.9671 42.089 72.0083 42.1307 72.0565 42.1568C72.2748 42.3007 72.5169 42.3855 72.7655 42.405C73.0142 42.4246 73.2634 42.3785 73.4956 42.27C73.8004 42.1221 74.0718 41.8684 74.3858 41.7369C74.5218 41.6924 74.6536 41.6312 74.7791 41.5544C74.869 41.4828 74.9461 41.3906 75.006 41.2831C75.0659 41.1757 75.1074 41.0551 75.1282 40.9283C75.1678 40.6749 75.1755 40.4159 75.1511 40.1598C75.1131 39.1681 74.9358 38.1912 74.6267 37.2701C74.6088 37.2107 74.5783 37.1578 74.5383 37.1167C74.4924 37.0833 74.4395 37.0662 74.3858 37.0675C73.9956 37.0182 73.3553 36.779 72.9788 36.9524C72.8471 37.0389 72.7335 37.16 72.6465 37.3066C72.5763 37.3997 72.1358 37.8177 72.1358 37.94Z" fill="#A1616A"/>
<path d="M72.012 37.5274C72.012 37.082 71.5547 36.0069 72.2818 35.9357C72.2818 35.4592 71.7193 35.1635 71.8245 34.6578C71.858 34.4899 71.9769 34.353 71.9907 34.1814C72.0364 33.694 71.3016 33.4293 71.4236 32.962C71.4693 32.7795 71.6309 32.6736 71.666 32.4929C71.7483 32.0712 71.1187 31.8832 71.1065 31.4505C71.1065 31.3045 71.1751 31.1676 71.169 31.0216C71.169 30.839 71.0364 30.7003 70.9632 30.5415C70.7726 30.1344 70.8656 29.5046 70.5181 29.2947C70.7482 29.3184 70.8229 28.9095 70.7284 28.6594C70.6339 28.4093 70.4403 28.1921 70.4388 27.9146C70.4502 27.8141 70.4502 27.7122 70.4388 27.6116C70.3748 27.3451 70.0104 27.3232 69.9495 27.064C69.9416 26.9645 69.939 26.8645 69.9418 26.7646C69.9174 26.5583 69.7406 26.4269 69.5744 26.3685C69.4018 26.3334 69.2357 26.2623 69.0836 26.1586C68.9769 26.0618 68.8534 25.9012 68.7391 25.976C68.6964 26.0071 68.675 26.0655 68.643 26.1093C68.5058 26.3009 68.2436 26.217 68.0714 26.0764C67.5622 25.662 67.3092 24.9191 67.2009 24.1944C67.0927 23.4697 67.0957 22.7212 66.9601 22.0038C66.9187 21.7803 66.8637 21.5606 66.7954 21.3467C66.7375 21.1641 66.5515 20.8775 66.5393 20.6932C66.5119 20.2733 67.2375 20.5599 67.5134 20.6019C67.7813 20.6332 68.0462 20.6943 68.3046 20.7844C68.5804 20.9092 68.8506 21.0512 69.1141 21.2098C70.2147 21.7921 71.544 21.8633 72.4282 22.8417C72.7193 23.163 72.9648 23.5847 73.3428 23.7307C73.5162 23.7705 73.6873 23.8236 73.855 23.8895C74.2742 24.125 74.3398 24.7913 74.5684 25.2732C74.6403 25.4005 74.703 25.5348 74.7559 25.6748C74.8 25.8399 74.8206 26.0127 74.8169 26.1859L74.8489 27.451C74.9008 29.5703 74.9526 31.6951 74.7636 33.8017C74.7026 34.4972 74.6111 35.2128 74.7834 35.8809C74.8291 36.0634 74.8931 36.235 74.9358 36.4194C74.9735 36.6356 74.9929 36.8557 74.9937 37.0766L75.0181 37.8962C75.0266 37.9599 75.0146 38.0251 74.9846 38.0787C74.9591 38.1035 74.9293 38.1211 74.8974 38.1303C74.8655 38.1395 74.8322 38.1399 74.8002 38.1317C73.8474 38.0294 72.884 37.3869 71.9845 37.7757" fill="#464353"/>
<path d="M115.492 100.505C121.718 100.505 126.766 99.6317 126.766 98.554C126.766 97.4763 121.718 96.6026 115.492 96.6026C109.265 96.6026 104.217 97.4763 104.217 98.554C104.217 99.6317 109.265 100.505 115.492 100.505Z" fill="#504F60"/>
<path d="M125.191 98.6489C124.993 97.6322 124.87 96.7395 124.87 96.7395C124.87 96.7395 124.915 95.6333 124.501 94.8027V94.5253V92.4808C124.619 92.1095 124.763 91.751 124.932 91.4092C125.237 90.7667 124.932 88.4118 124.932 88.4118C124.932 88.4118 123.793 85.0913 124.069 82.9848C124.345 80.8782 121.731 73.6312 121.731 73.6312C121.747 72.9323 121.829 72.2378 121.976 71.5611C122.004 71.4189 122.016 71.2726 122.01 71.1267C122.01 71.1084 122.01 71.092 122.01 71.0737C122.01 71.0555 122.01 71.0847 122.01 71.0902C121.97 69.701 121.053 67.0979 121.053 67.0979L121.176 62.1363C121.176 62.1363 121.761 59.2156 120.807 55.2818C120.473 53.9109 120.26 52.8138 120.124 51.9668C120.109 51.8718 120.094 51.7842 120.081 51.6911C122.046 51.326 123.548 51.034 123.548 51.034C123.548 51.034 122.408 45.3221 121.638 44.3218C120.868 43.3214 120.252 40.1799 120.252 40.1799C120.252 40.1799 119.851 36.1474 120.499 34.9682C121.147 33.789 121.239 31.7554 121.239 31.7554C121.239 31.7554 122.716 30.4776 122.902 29.8989C123.088 29.3203 123.394 28.0425 123.394 27.3652C123.394 26.688 123.21 26.0874 123.271 25.7223C123.332 25.3572 122.839 24.0082 123.086 23.3657C123.15 23.1683 123.183 22.9585 123.184 22.7468C123.184 22.7408 123.184 22.7346 123.184 22.7286C123.186 22.1663 123.143 21.6051 123.054 21.0528C122.627 20.6207 122.128 20.3016 121.591 20.1164L121.559 19.963L121.475 19.5614C121.428 19.5244 121.38 19.4903 121.33 19.4592V19.3132L121.316 18.7327L121.548 17.4293C122.005 15.1621 119.476 14.8244 119.476 14.8244C119.323 14.4766 119.068 14.2088 118.76 14.0723C118.252 13.8587 118.676 17.4822 118.912 17.7232C119.091 17.9057 119.642 19.0339 119.909 19.5925L119.952 19.6837C119.91 19.7287 119.871 19.7775 119.836 19.8298L119.932 20.6165L119.947 20.737C119.78 20.9863 119.644 21.2636 119.543 21.5603C119.543 21.5603 120.001 22.1663 119.914 22.8381C119.827 23.5099 120.056 24.3624 120.066 24.408C120.039 24.3697 119.714 23.9498 119.389 24.052C119.065 24.1542 118.158 24.481 118.158 24.481C118.158 24.481 117.481 24.6234 117.548 24.8023C117.615 24.9812 117.091 25.7661 117.091 25.7661L115.27 23.6997C115.252 23.6376 115.232 23.5756 115.217 23.5172C115.143 23.2192 115.092 22.9137 115.065 22.6044C115.263 22.548 115.458 22.4742 115.647 22.3836C115.838 22.3049 116.011 22.1722 116.15 21.9966C116.334 21.7355 116.37 21.3814 116.444 21.0565C116.588 20.4212 116.902 19.8571 117.12 19.2529C117.489 18.2319 117.608 17.1062 117.463 16.0073C117.435 15.6686 117.339 15.343 117.184 15.058C116.886 14.5688 116.347 14.3699 115.955 13.9792C115.563 13.5886 115.31 12.9916 114.853 12.7014C114.44 12.4367 113.938 12.4677 113.472 12.559C112.561 12.7389 111.685 13.1202 110.891 13.6835C110.626 13.866 110.333 14.0906 110.028 14.023C109.766 13.9664 109.571 13.7163 109.406 13.4754C109.408 13.4654 109.41 13.4556 109.414 13.4462C109.406 13.4373 109.4 13.4275 109.394 13.417C109.201 13.9296 109.104 14.4867 109.11 15.0489C109.11 15.1365 109.11 15.2315 109.119 15.31V15.4012C109.119 15.4268 109.119 15.4523 109.119 15.4761C109.119 15.515 109.115 15.5537 109.106 15.5911C109.067 15.7027 109.009 15.803 108.935 15.885C108.879 15.9611 108.828 16.0423 108.782 16.1278C108.782 16.0985 108.798 16.0693 108.807 16.0383C108.691 16.2416 108.625 16.4803 108.618 16.7265C108.609 16.9058 108.658 17.0821 108.755 17.2194C108.846 17.3255 108.946 17.4209 109.052 17.5041C109.016 17.7451 108.998 17.9895 108.997 18.2343C109.001 18.9602 109.161 19.6728 109.461 20.3031C109.762 20.9334 110.193 21.4601 110.714 21.8323C110.735 21.8925 110.755 21.9546 110.775 22.0148C111.008 22.745 111.183 23.603 111.106 24.3879C111.106 24.4445 111.092 24.5029 111.084 24.5595C111.077 24.6161 111.039 24.6197 111.019 24.6508C111.019 24.6508 108.011 24.6873 107.304 23.9206C106.596 23.1539 105.517 25.7953 105.517 25.7953C105.517 25.7953 104.439 26.0454 104.223 25.7953C104.006 25.5452 102.746 25.7606 102.746 25.7606C102.229 25.2106 101.557 24.9169 100.866 24.9392C100.448 24.5582 99.9855 24.2509 99.4942 24.0265L99.4607 24.0119C99.2438 23.9172 99.012 23.8823 98.7823 23.9096C98.7823 23.9096 97.3036 22.4493 96.8722 21.6607C96.4408 20.8721 94.3874 17.9605 94.3783 17.9477V17.8072L94.3554 17.3837C94.2944 17.3951 94.2327 17.4012 94.1709 17.4019C94.1603 17.3599 94.145 17.3106 94.1298 17.2541C94.0115 16.841 93.8657 16.4399 93.6938 16.0547C93.6938 16.0547 93.6938 15.5199 93.8234 15.3848C93.9529 15.2497 93.77 13.2874 93.77 13.2874C93.77 13.2874 92.4377 9.55797 91.244 12.3418C91.244 12.3418 88.9879 14.1435 90.8812 16.2428C90.8812 16.2428 91.6434 16.6809 91.7441 17.0277C91.8142 17.2522 92.0703 17.882 92.2425 18.3055L92.3203 18.4881L92.2989 18.51L92.3264 18.8605L92.3386 18.9955C91.9819 19.2383 91.7395 19.4793 91.7989 19.66C91.904 19.9693 91.9762 20.2931 92.0139 20.6238C92.0139 20.6238 94.6328 24.5522 94.9713 26.2298C94.9713 26.2298 101.994 31.2279 104.304 31.5838L103.895 34.0756C103.836 34.7517 103.805 35.431 103.804 36.1109C103.834 36.6458 103.526 39.0736 103.526 39.0736C103.526 39.0736 103.125 42.6442 102.787 43.1444C102.449 43.6446 102.51 45.7858 102.51 45.7858C102.43 46.8109 102.277 47.8259 102.052 48.8197C101.714 50.176 101.959 51.8554 101.959 51.8554C101.959 51.8554 100.79 55.0682 103.592 52.8904C103.592 52.8904 104.964 52.7882 106.552 52.7225C106.552 52.7846 106.552 52.8485 106.552 52.905C106.552 53.1497 106.552 53.4143 106.542 53.6918C106.52 55.5319 106.511 58.0729 106.581 59.986C106.705 63.3776 107.568 70.0898 107.568 70.0898V73.4687C107.512 73.7856 107.484 74.1087 107.485 74.4326C107.467 75.6214 107.731 76.792 108.247 77.8078L108.464 80.0568C108.464 80.0568 108.97 81.539 108.979 82.4298C108.977 82.5016 108.97 82.5731 108.958 82.6434C108.938 82.7568 108.93 82.8727 108.933 82.9884C108.904 84.0107 109.418 86.4568 109.418 86.4568C109.418 86.4568 109.449 88.9193 109.757 89.0635C110.02 89.1858 109.404 90.4819 109.222 90.8543C109.217 90.8315 109.213 90.8083 109.211 90.7849L109.173 90.8579C109.109 91.0573 109.077 91.2689 109.077 91.4822C109.059 91.6504 109.082 91.821 109.143 91.9741C109.203 92.1273 109.299 92.2568 109.418 92.3475C110.004 92.7765 110.318 93.1324 109.821 93.2748C109.638 93.3088 109.457 93.3545 109.278 93.4117C109.278 93.3843 109.26 93.3551 109.252 93.3296C109.182 93.3624 109.123 93.4232 109.086 93.5017C109.05 93.5802 109.036 93.6716 109.049 93.7604C109.054 94.05 109.116 94.334 109.231 94.5891C109.723 95.9108 110.065 96.4146 110.065 96.4146L110.301 96.3836C110.266 96.4917 110.22 96.5941 110.164 96.6884C110.074 96.8415 109.955 96.9667 109.816 97.0535C109.687 97.146 109.543 97.2051 109.394 97.2269C109.227 97.2334 109.063 97.282 108.913 97.3694C108.762 97.4568 108.629 97.5812 108.522 97.7344C108.217 98.2108 108.022 98.8589 108.629 99.4284L110.831 100.341C110.831 100.341 114.621 100.931 114.42 99.9121C114.219 98.8935 114.097 98.0027 114.097 98.0027C114.113 97.3808 114.009 96.7628 113.792 96.1974C113.752 96.1051 113.707 96.016 113.658 95.9308L113.792 95.9144C113.792 95.9144 114.069 93.6636 114.438 93.2365C114.523 93.1379 114.543 93.0539 114.523 93.0028C114.562 92.8805 114.464 92.8093 114.341 92.7673L114.313 92.8568C114.192 92.8253 114.069 92.8088 113.946 92.8075C113.946 92.8075 113.822 91.6301 114.223 91.2011C114.255 91.1522 114.279 91.0959 114.292 91.0356C114.306 90.9753 114.309 90.9123 114.301 90.8506C114.304 90.6891 114.29 90.5277 114.258 90.3705C114.254 90.3806 114.25 90.3904 114.244 90.3997C114.043 89.33 113.36 87.6305 113.36 87.6305C113.36 87.6305 113.33 86.5608 113.577 86.1318C113.824 85.7029 113.545 80.3123 113.545 80.3123C113.545 80.3123 113.638 77.7074 113.36 76.4935C113.083 75.2796 113.699 73.8502 113.699 73.8502C113.699 73.8502 113.699 73.8228 113.699 73.7736V73.7553L113.664 73.3446C113.663 73.3531 113.663 73.3617 113.664 73.3701C113.601 72.6801 113.484 71.4297 113.397 70.8528C113.273 70.0314 113.429 66.1067 113.429 66.1067L113.982 64.4273L114.969 67.3206L116.016 71.1759C116.016 71.1759 116.534 71.9901 116.546 72.8189C116.546 72.859 116.546 72.8992 116.546 72.9393C116.538 73.0248 116.534 73.1107 116.534 73.1967C116.516 73.6838 116.627 74.1653 116.853 74.5713C116.853 74.5713 117.13 76.3967 117.562 76.8549C117.993 77.3131 117.993 78.2112 117.993 78.2112C117.993 78.2112 118.516 80.8545 118.755 81.3145C118.963 81.7051 118.973 82.7748 118.972 83.1089C118.972 83.1691 118.972 83.2038 118.972 83.2038C118.972 83.2038 119.045 84.1494 119.042 84.9417C119.042 85.0402 119.042 85.1351 119.042 85.2246C119.043 85.2179 119.043 85.2112 119.042 85.2045C119.042 85.421 119.02 85.6367 118.978 85.8471L118.969 85.8836C118.969 85.8379 118.969 85.7941 118.979 85.7503C118.872 86.2883 118.821 86.8402 118.827 87.3932C118.813 88.3425 118.934 89.4669 119.414 90.1314C120.246 91.2741 120.769 91.1317 120.769 91.1317C120.769 91.1317 120.37 92.5592 119.876 92.8458C119.857 92.8564 119.84 92.8699 119.824 92.886C119.824 92.8568 119.815 92.8294 119.812 92.802C119.757 92.8732 119.715 92.9574 119.688 93.0492C119.662 93.141 119.652 93.2384 119.659 93.3351C119.624 93.963 119.955 94.978 120.269 95.4507C120.386 95.5875 120.529 95.6878 120.685 95.7428C120.66 95.7638 120.634 95.7827 120.607 95.7994C120.553 95.8355 120.496 95.8678 120.438 95.8962C120.358 95.9369 120.273 95.9634 120.187 95.9747C120.02 95.98 119.855 96.028 119.705 96.1156C119.555 96.2031 119.421 96.328 119.315 96.4821C119.01 96.9567 118.815 97.6048 119.421 98.1743L121.624 99.087C121.624 99.087 125.39 99.6657 125.191 98.6489Z" fill="url(#paint0_linear)"/>
<path d="M110.723 100.336L108.589 99.4229C108.001 98.8534 108.188 98.2053 108.485 97.7289C108.588 97.5769 108.716 97.453 108.862 97.3655C109.007 97.2779 109.167 97.2288 109.33 97.2214C109.474 97.1994 109.613 97.1402 109.737 97.048C109.872 96.96 109.988 96.8349 110.075 96.6829C110.231 96.387 110.315 96.0451 110.318 95.6954C110.318 95.6954 112.659 94.8739 113.3 95.6954C113.414 95.8441 113.509 96.0119 113.583 96.1937C113.796 96.7608 113.9 97.3776 113.888 97.9991C113.888 97.9991 114.007 98.8899 114.2 99.9085C114.394 100.927 110.723 100.336 110.723 100.336Z" fill="#2D293D"/>
<path d="M121.156 99.076L119.022 98.1633C118.434 97.5938 118.621 96.9457 118.918 96.4711C119.02 96.3186 119.148 96.1942 119.293 96.1066C119.439 96.019 119.599 95.9702 119.761 95.9637C119.846 95.9533 119.928 95.9268 120.005 95.8852C120.062 95.8567 120.117 95.8244 120.17 95.7884C120.766 95.3959 120.751 94.4321 120.751 94.4321C120.751 94.4321 123.091 93.6107 123.733 94.4321C123.818 94.5434 123.894 94.6658 123.957 94.7972C124.358 95.6278 124.313 96.7358 124.313 96.7358C124.313 96.7358 124.432 97.6285 124.618 98.6452C124.804 99.662 121.156 99.076 121.156 99.076Z" fill="#2D293D"/>
<path opacity="0.1" d="M113.301 95.6935C113.415 95.8422 113.511 96.0101 113.585 96.1919L110.078 96.6793C110.234 96.3834 110.318 96.0414 110.321 95.6917C110.321 95.6917 112.661 94.8721 113.301 95.6935Z" fill="black"/>
<path opacity="0.1" d="M123.96 94.8009V95.5877C123.414 96.6629 120.775 96.4274 120.009 95.8889C120.065 95.8604 120.12 95.8281 120.173 95.7921C120.769 95.3997 120.754 94.4358 120.754 94.4358C120.754 94.4358 123.094 93.6144 123.736 94.4358C123.822 94.5471 123.897 94.6696 123.96 94.8009Z" fill="black"/>
<path d="M124.376 91.4092C124.213 91.7521 124.073 92.1105 123.96 92.4808V95.3011C123.362 96.4785 120.263 96.086 119.844 95.4435C119.425 94.8009 118.987 93.1288 119.458 92.8386C119.929 92.5483 120.322 91.1245 120.322 91.1245C120.322 91.1245 119.815 91.2668 119.01 90.1241C118.205 88.9814 118.444 86.4477 118.594 85.8416C118.743 85.2356 118.594 83.2002 118.594 83.2002C118.594 83.2002 118.624 81.7709 118.386 81.3072C118.149 80.8435 117.641 78.2039 117.641 78.2039C117.641 78.2039 117.641 77.3113 117.223 76.8476C116.806 76.384 116.537 74.5622 116.537 74.5622C116.293 74.1069 116.188 73.5645 116.24 73.027C116.328 72.1343 115.732 71.1705 115.732 71.1705L114.719 67.3133L113.764 64.4218L113.228 66.0994C113.228 66.0994 113.075 70.0259 113.199 70.8456C113.322 71.6652 113.504 73.8448 113.504 73.8448C113.504 73.8448 112.908 75.2723 113.176 76.4862C113.444 77.7001 113.347 80.3087 113.347 80.3087C113.347 80.3087 113.615 85.6974 113.376 86.1264C113.136 86.5554 113.167 87.6269 113.167 87.6269C113.167 87.6269 114.386 90.7667 114.002 91.1957C113.618 91.6246 113.734 92.8021 113.734 92.8021C113.734 92.8021 114.568 92.802 114.211 93.231C113.854 93.66 113.584 95.909 113.584 95.909L109.979 96.4146C109.979 96.4146 109.65 95.9163 109.173 94.5892C108.696 93.2621 109.261 93.4118 109.741 93.2675C110.222 93.1233 109.918 92.7692 109.351 92.3402C108.784 91.9112 109.113 90.9474 109.113 90.9474C109.113 90.9474 109.978 89.1986 109.679 89.0562C109.38 88.9138 109.351 86.4495 109.351 86.4495C109.351 86.4495 108.755 83.5288 108.904 82.7365C109.054 81.9443 108.427 80.0604 108.427 80.0604L108.219 77.8115C107.581 76.5353 107.348 75.0267 107.563 73.5618V70.0935C107.563 70.0935 106.728 63.3831 106.609 59.9914C106.532 57.8192 106.554 54.8546 106.578 53.0055C106.593 51.9686 106.609 51.2804 106.609 51.2804L119.487 49.674C119.487 49.674 119.475 50.3859 119.72 51.9649C119.853 52.812 120.059 53.909 120.382 55.28C121.306 59.2065 120.74 62.1327 120.74 62.1327L120.62 67.0961C120.62 67.0961 121.752 70.4147 121.515 71.5575C121.371 72.236 121.29 72.9315 121.274 73.6312C121.274 73.6312 123.807 80.8782 123.539 82.9848C123.271 85.0914 124.373 88.4118 124.373 88.4118C124.373 88.4118 124.675 90.7667 124.376 91.4092Z" fill="#464353"/>
<path opacity="0.05" d="M117.013 72.8116L120.934 72.1854C120.934 72.1854 118.712 74.8999 117.013 72.8116Z" fill="black"/>
<path opacity="0.1" d="M120.367 67.598C120.367 67.598 120.501 69.2592 119.652 69.8835C119.652 69.8835 121.171 69.5987 120.367 67.598Z" fill="black"/>
<path opacity="0.1" d="M120.126 62.3152C120.126 62.3152 116.848 65.5463 115.656 65.2779C114.464 65.0096 120.126 62.3152 120.126 62.3152Z" fill="black"/>
<path opacity="0.1" d="M112.153 74.3267C112.153 74.3267 109.664 75.0039 109.589 76.2014C109.514 77.3989 112.153 74.3267 112.153 74.3267Z" fill="black"/>
<path opacity="0.05" d="M112.7 89.215C112.7 89.215 109.184 89.9999 110.182 90.5348C111.181 91.0696 112.821 91.4986 112.821 91.4986C112.821 91.4986 113.957 91.5698 112.7 89.215Z" fill="black"/>
<g opacity="0.05">
<path opacity="0.05" d="M109.472 91.3854C109.383 91.3193 109.308 91.2301 109.253 91.1245C109.197 91.019 109.162 90.8997 109.15 90.7757L109.114 90.8505C109.114 90.8505 108.786 91.8144 109.353 92.2415C109.417 92.2908 109.479 92.3401 109.536 92.3876C109.641 92.3638 109.754 92.3456 109.862 92.3127C110.342 92.1703 110.039 91.8144 109.472 91.3854Z" fill="black"/>
<path opacity="0.05" d="M114.002 91.0988C114.1 90.9929 114.097 90.7191 114.037 90.3686C113.885 90.6442 113.841 91.075 113.838 91.4018C113.875 91.2884 113.931 91.1852 114.002 91.0988Z" fill="black"/>
<path opacity="0.05" d="M113.461 73.3391C113.332 73.7613 113.252 74.203 113.223 74.6516C113.291 74.3417 113.383 74.0399 113.496 73.7498L113.461 73.3391Z" fill="black"/>
<path opacity="0.05" d="M121.516 71.4662C121.54 71.3379 121.55 71.2068 121.548 71.0756C121.504 71.3421 121.474 71.5885 121.451 71.8057C121.47 71.6944 121.492 71.5885 121.516 71.4662Z" fill="black"/>
<path opacity="0.05" d="M113.377 86.0314C113.426 85.9437 113.454 85.648 113.466 85.2373C113.355 85.5551 113.297 85.8953 113.293 86.2395C113.314 86.1663 113.342 86.0964 113.377 86.0314Z" fill="black"/>
<path opacity="0.05" d="M114.109 92.7636C113.924 93.4797 113.787 94.2121 113.699 94.9542L110.094 95.4525C110.094 95.4525 109.765 94.9541 109.287 93.627C109.249 93.5245 109.215 93.4197 109.185 93.3131C108.969 93.4317 108.88 93.7001 109.167 94.4832C109.644 95.8048 109.975 96.3086 109.975 96.3086L113.58 95.8085C113.58 95.8085 113.848 93.5595 114.205 93.1305C114.388 92.9243 114.275 92.8165 114.109 92.7636Z" fill="black"/>
<path opacity="0.05" d="M109.353 86.3527C109.353 86.3527 109.382 88.8152 109.681 88.9576C109.833 88.5505 109.932 88.1635 109.798 88.0996C109.493 87.9573 109.47 85.4929 109.47 85.4929C109.47 85.4929 108.874 82.5722 109.024 81.7799C109.173 80.9877 108.547 79.1038 108.547 79.1038L108.338 76.8549C107.7 75.5787 107.467 74.0701 107.682 72.6052V69.1369C107.682 69.1369 106.847 62.4265 106.728 59.0349C106.652 56.8626 106.673 53.898 106.697 52.0489C106.697 51.7148 106.707 51.4191 106.711 51.169L106.609 51.1818C106.609 51.1818 106.592 51.8682 106.579 52.9068C106.554 54.756 106.531 57.7205 106.609 59.891C106.728 63.2827 107.562 69.9948 107.562 69.9948V73.4632C107.348 74.9277 107.581 76.4354 108.219 77.711L108.426 79.96C108.426 79.96 109.053 81.8511 108.903 82.6379C108.754 83.4247 109.353 86.3527 109.353 86.3527Z" fill="black"/>
<path opacity="0.05" d="M119.966 94.4905C119.673 93.9828 119.478 93.4036 119.394 92.7947C119.027 93.1926 119.449 94.737 119.852 95.3503C120.268 95.9929 123.368 96.3854 123.967 95.2061V94.527C123.155 95.4817 120.359 95.0984 119.966 94.4905Z" fill="black"/>
<path opacity="0.05" d="M124.497 90.4562C124.333 90.7991 124.193 91.1575 124.079 91.5278V92.0334C124.147 91.8509 124.243 91.6063 124.384 91.3178C124.478 91.0368 124.523 90.7353 124.515 90.4325C124.515 90.4325 124.501 90.4489 124.497 90.4562Z" fill="black"/>
<path opacity="0.05" d="M120.149 91.0203C120.262 90.7453 120.361 90.4618 120.443 90.1715C120.443 90.1715 119.936 90.3139 119.131 89.1711C118.545 88.3405 118.512 86.7707 118.596 85.7448C118.443 86.3526 118.207 88.8864 119.012 90.0291C119.538 90.7757 119.936 90.9729 120.149 91.0203Z" fill="black"/>
<path opacity="0.05" d="M118.594 83.1034C118.647 83.8067 118.666 84.5131 118.653 85.2191C118.668 85.1076 118.689 84.9973 118.714 84.8887C118.867 84.2808 118.714 82.2472 118.714 82.2472C118.714 82.2472 118.745 80.8179 118.506 80.3543C118.266 79.8906 117.768 77.2473 117.768 77.2473C117.768 77.2473 117.768 76.3547 117.35 75.891C116.932 75.4274 116.664 73.6056 116.664 73.6056C116.418 73.1512 116.31 72.6089 116.359 72.0704C116.449 71.1777 115.853 70.2139 115.853 70.2139L114.839 66.3585L113.885 63.467L113.347 65.1464C113.347 65.1464 113.347 65.3582 113.329 65.6941L113.765 64.3305L114.719 67.2165L115.733 71.0719C115.733 71.0719 116.329 72.0357 116.239 72.9283C116.19 73.4669 116.297 74.0092 116.544 74.4635C116.544 74.4635 116.812 76.289 117.23 76.749C117.647 77.209 117.646 78.1053 117.646 78.1053C117.646 78.1053 118.153 80.7467 118.391 81.2086C118.629 81.6704 118.594 83.1034 118.594 83.1034Z" fill="black"/>
</g>
<path d="M121.097 17.4239L120.873 18.7272L120.886 19.3077L120.896 19.7349L119.652 19.8882L119.513 19.5797C119.255 19.0211 118.72 17.8857 118.548 17.7105C118.318 17.4804 117.908 13.8551 118.396 14.0705C118.696 14.2094 118.942 14.4767 119.088 14.8208C119.088 14.8208 121.537 15.1566 121.097 17.4239Z" fill="#FFCDD3"/>
<path opacity="0.1" d="M120.896 19.7349L119.652 19.8882L119.513 19.5797C119.68 19.3516 119.908 19.2 120.159 19.1508C120.409 19.1015 120.665 19.1576 120.885 19.3095L120.896 19.7349Z" fill="black"/>
<path d="M121.21 20.4413L119.569 20.8958L119.534 20.6037L119.441 19.817C119.441 19.817 120.091 18.7801 121.03 19.5578L121.112 19.9575L121.21 20.4413Z" fill="#6C63FF"/>
<path d="M94.639 17.5662L92.8874 18.6907L92.735 18.2964C92.5688 17.8783 92.3203 17.2486 92.2517 17.0185C92.1481 16.6717 91.4179 16.2336 91.4179 16.2336C89.5886 14.1362 91.7685 12.3326 91.7685 12.3326C92.924 9.54882 94.2076 13.2782 94.2076 13.2782C94.2076 13.2782 94.3875 15.2442 94.2609 15.3756C94.1344 15.5071 94.1344 16.0456 94.1344 16.0456C94.3013 16.4314 94.4425 16.8324 94.5567 17.2449C94.61 17.4439 94.639 17.5662 94.639 17.5662Z" fill="#FFCDD3"/>
<path opacity="0.1" d="M94.6391 17.5662L92.8876 18.6907L92.7351 18.2964C92.9821 18.0481 93.8586 17.2011 94.1467 17.2358C94.2843 17.2563 94.4232 17.2606 94.5614 17.2486C94.6102 17.4439 94.6391 17.5662 94.6391 17.5662Z" fill="black"/>
<path d="M94.8173 18.1996L92.8493 19.3606L92.8097 18.8549L92.7822 18.5044C92.7822 18.5044 93.9225 17.3343 94.2594 17.38C94.4297 17.4095 94.6028 17.4095 94.7731 17.38L94.796 17.8035L94.8173 18.1996Z" fill="#6C63FF"/>
<path d="M116.327 26.0819C116.327 26.0819 107.747 27.241 109.351 26.6167C110.467 26.1805 110.911 25.3389 111.004 24.3897C111.08 23.5993 110.909 22.7468 110.685 22.0166C110.483 21.3688 110.228 20.7469 109.923 20.1601C109.923 20.1601 116.478 15.8411 115.168 19.7677C114.966 20.3616 114.841 20.9888 114.796 21.6278C114.757 22.2628 114.814 22.9012 114.966 23.5117C115.213 24.5022 115.684 25.3917 116.327 26.0819Z" fill="#FFCDD3"/>
<path opacity="0.1" d="M115.164 19.7622C114.962 20.3561 114.836 20.9833 114.792 21.6224C114.174 22.2448 113.498 22.2028 112.627 22.2028C111.959 22.2028 111.219 22.3963 110.685 22.0112C110.483 21.3634 110.228 20.7415 109.923 20.1547C109.923 20.1547 116.476 15.8357 115.164 19.7622Z" fill="black"/>
<path d="M112.511 22.4766C114.47 22.4766 116.059 20.5748 116.059 18.2288C116.059 15.8828 114.47 13.981 112.511 13.981C110.552 13.981 108.964 15.8828 108.964 18.2288C108.964 20.5748 110.552 22.4766 112.511 22.4766Z" fill="#FFCDD3"/>
<path opacity="0.1" d="M116.327 26.0819C116.327 26.0819 107.747 27.2411 109.351 26.6168C110.467 26.1805 110.911 25.339 111.004 24.3897C111.43 23.8421 112.289 23.435 112.833 23.2233C113.336 23.0206 113.879 23.0098 114.388 23.1922C114.588 23.2644 114.778 23.3701 114.953 23.5062C115.203 24.5004 115.679 25.3921 116.327 26.0819Z" fill="black"/>
<path opacity="0.1" d="M121.21 20.4413L119.569 20.8959L119.534 20.6038C119.71 20.3149 119.956 20.0979 120.238 19.9823C120.52 19.8666 120.826 19.858 121.112 19.9576L121.21 20.4413Z" fill="black"/>
<path opacity="0.1" d="M94.8175 18.1996L92.8494 19.3606L92.8098 18.855C93.4473 18.4446 94.1097 18.0925 94.7916 17.8017L94.8175 18.1996Z" fill="black"/>
<path opacity="0.1" d="M119.72 51.9685C116.395 52.6038 111.67 53.4143 110.92 53.1405C110.296 52.9141 108.308 52.9379 106.578 53.0091C106.593 51.9722 106.609 51.284 106.609 51.284L119.487 49.6776C119.487 49.6776 119.475 50.3895 119.72 51.9685Z" fill="black"/>
<path d="M123.034 51.0339C123.034 51.0339 112.093 53.2829 110.92 52.8594C109.746 52.4359 103.717 52.894 103.717 52.894C101.003 55.0718 102.136 51.859 102.136 51.859C102.136 51.859 101.898 50.1814 102.226 48.8251C102.446 47.8293 102.596 46.8133 102.676 45.7876C102.676 45.7876 102.616 43.6445 102.944 43.1443C103.272 42.6442 103.66 39.0754 103.66 39.0754C103.66 39.0754 103.958 36.6476 103.929 36.1127C103.9 35.5779 104.017 34.0773 104.017 34.0773L104.406 31.5783C102.17 31.2223 95.3722 26.2243 95.3722 26.2243C95.0444 24.5467 92.5108 20.6201 92.5108 20.6201C92.4739 20.2899 92.4038 19.9663 92.302 19.6563C92.1236 19.0849 94.8066 17.9422 94.8066 17.9422C94.8066 17.9422 96.8036 20.8629 97.2213 21.6552C97.639 22.4474 99.0689 23.9041 99.0689 23.9041C99.291 23.8767 99.5155 23.9117 99.7244 24.0063L99.7594 24.0191C100.239 24.2444 100.688 24.5518 101.093 24.9318C101.766 24.9127 102.418 25.2073 102.912 25.7533C102.912 25.7533 104.131 25.5379 104.343 25.788C104.555 26.0381 105.595 25.788 105.595 25.788C105.595 25.788 106.638 23.1466 107.324 23.9132C108.01 24.6799 110.92 24.6434 110.92 24.6434C111.307 24.0264 112.251 23.5847 112.84 23.3656C113.344 23.1638 113.887 23.153 114.395 23.3346C114.615 23.413 114.821 23.5365 115.005 23.6997L116.775 25.7697C116.775 25.7697 117.281 24.983 117.222 24.8059C117.162 24.6288 117.818 24.4846 117.818 24.4846C117.818 24.4846 118.682 24.1633 119.01 24.0556C119.338 23.9479 119.638 24.3733 119.665 24.4116C119.655 24.366 119.431 23.4989 119.513 22.8417C119.595 22.1845 119.155 21.5639 119.155 21.5639C120.197 18.4935 122.553 21.0637 122.553 21.0637C122.553 21.0637 122.821 22.7413 122.583 23.3839C122.345 24.0264 122.821 25.3827 122.761 25.7405C122.702 26.0983 122.882 26.7043 122.882 27.3834C122.882 28.0625 122.577 29.3458 122.405 29.9171C122.232 30.4885 120.795 31.7736 120.795 31.7736C120.795 31.7736 120.705 33.809 120.078 34.9864C119.452 36.1638 119.845 40.1908 119.845 40.1908C119.845 40.1908 120.441 43.3324 121.187 44.3327C121.932 45.333 123.034 51.0339 123.034 51.0339Z" fill="#3F3D56"/>
<path opacity="0.1" d="M107.086 27.5441C107.086 27.5441 106.758 26.3667 106.459 26.2663C106.163 26.1356 105.874 25.9807 105.595 25.8026L105.787 25.3627C105.787 25.3627 106.906 25.7278 107.086 26.1239C107.266 26.52 107.086 27.5441 107.086 27.5441Z" fill="black"/>
<path opacity="0.1" d="M101.094 24.9392C101.034 25.3042 98.3801 25.6164 98.3801 25.6164L99.7216 24.0063L99.7552 24.021C100.236 24.2474 100.687 24.5568 101.094 24.9392Z" fill="black"/>
<path d="M93.4165 20.3245C93.5479 20.3245 93.6543 20.197 93.6543 20.0397C93.6543 19.8824 93.5479 19.7549 93.4165 19.7549C93.2852 19.7549 93.1787 19.8824 93.1787 20.0397C93.1787 20.197 93.2852 20.3245 93.4165 20.3245Z" fill="#575988"/>
<path d="M93.7215 20.8958C93.8528 20.8958 93.9593 20.7683 93.9593 20.611C93.9593 20.4537 93.8528 20.3262 93.7215 20.3262C93.5901 20.3262 93.4836 20.4537 93.4836 20.611C93.4836 20.7683 93.5901 20.8958 93.7215 20.8958Z" fill="#575988"/>
<path d="M94.0203 21.4234C94.1516 21.4234 94.2581 21.2959 94.2581 21.1387C94.2581 20.9814 94.1516 20.8539 94.0203 20.8539C93.8889 20.8539 93.7825 20.9814 93.7825 21.1387C93.7825 21.2959 93.8889 21.4234 94.0203 21.4234Z" fill="#575988"/>
<path d="M94.3325 21.9929C94.4639 21.9929 94.5704 21.8654 94.5704 21.7081C94.5704 21.5508 94.4639 21.4233 94.3325 21.4233C94.2012 21.4233 94.0947 21.5508 94.0947 21.7081C94.0947 21.8654 94.2012 21.9929 94.3325 21.9929Z" fill="#575988"/>
<path d="M122.434 21.909C122.541 21.909 122.627 21.8052 122.627 21.6771C122.627 21.5491 122.541 21.4453 122.434 21.4453C122.327 21.4453 122.24 21.5491 122.24 21.6771C122.24 21.8052 122.327 21.909 122.434 21.909Z" fill="#575988"/>
<path d="M122.464 22.4365C122.571 22.4365 122.658 22.3327 122.658 22.2047C122.658 22.0766 122.571 21.9728 122.464 21.9728C122.357 21.9728 122.271 22.0766 122.271 22.2047C122.271 22.3327 122.357 22.4365 122.464 22.4365Z" fill="#575988"/>
<path d="M122.49 22.9622C122.597 22.9622 122.684 22.8584 122.684 22.7304C122.684 22.6023 122.597 22.4985 122.49 22.4985C122.383 22.4985 122.296 22.6023 122.296 22.7304C122.296 22.8584 122.383 22.9622 122.49 22.9622Z" fill="#575988"/>
<path opacity="0.1" d="M107.097 37.2189C107.068 37.177 113.789 47.3392 119.005 41.4668C119.01 41.4686 110.767 42.8066 107.097 37.2189Z" fill="black"/>
<path opacity="0.1" d="M103.24 42.5018C103.24 42.5018 107.261 42.6332 107.682 44.0187V45.4608C107.568 45.5369 107.439 45.5768 107.308 45.5768C107.177 45.5768 107.048 45.5369 106.934 45.4608C106.528 45.1979 104.097 43.7193 103.24 44.4313V42.5018Z" fill="black"/>
<path d="M103.314 42.5018C103.314 42.5018 107.161 42.6277 107.563 43.9493V45.3221C107.453 45.395 107.33 45.4332 107.205 45.4332C107.079 45.4332 106.956 45.395 106.847 45.3221C106.459 45.0738 104.135 43.6628 103.314 44.3418V42.5018Z" fill="#3F3D56"/>
<path opacity="0.1" d="M105.435 32.0456C105.846 33.1844 106.369 34.26 106.995 35.2492C107.674 36.3427 108.498 37.2965 109.434 38.0732C109.434 38.0732 105.502 32.7064 105.435 32.0456Z" fill="black"/>
<path opacity="0.1" d="M104.119 26.4507C104.119 26.4507 104.79 29.919 106.519 31.0964L104.119 26.4507Z" fill="black"/>
<path opacity="0.1" d="M103.091 26.8012C103.074 26.7373 102.495 29.5394 105.319 31.0965C105.319 31.0965 104.12 30.6091 103.091 26.8012Z" fill="black"/>
<path opacity="0.1" d="M120.65 24.4755C120.606 24.4755 122.043 25.5708 122.435 26.0819C122.435 26.0819 121.499 24.4025 120.65 24.4755Z" fill="black"/>
<path d="M111.552 22.0787C111.553 22.1713 111.57 22.2629 111.601 22.3475C111.633 22.4321 111.679 22.5079 111.736 22.5702C111.793 22.6325 111.861 22.6798 111.934 22.7093C112.007 22.7387 112.085 22.7497 112.162 22.7413C113.243 22.8216 114.37 22.8782 115.364 22.3762C115.55 22.2965 115.717 22.1637 115.851 21.9892C116.028 21.7282 116.063 21.3741 116.135 21.0491C116.275 20.4139 116.574 19.8498 116.789 19.2456C117.153 18.2248 117.274 17.1037 117.141 16.0054C117.113 15.6688 117.02 15.3445 116.87 15.058C116.583 14.567 116.06 14.368 115.681 13.9773C115.301 13.5867 115.057 12.9898 114.614 12.6995C114.214 12.433 113.725 12.4659 113.275 12.5571C112.391 12.737 111.543 13.1181 110.778 13.6798C110.52 13.8623 110.238 14.0869 109.943 14.0193C109.684 13.9609 109.495 13.6999 109.333 13.4553C109.125 14.0394 109.038 14.675 109.078 15.3081C109.09 15.401 109.087 15.4956 109.071 15.5874C109.033 15.6984 108.977 15.7986 108.905 15.8813C108.638 16.2464 108.472 16.8396 108.735 17.2157C108.85 17.3782 109.027 17.4676 109.138 17.6337C109.338 17.9313 109.27 18.3639 109.266 18.7436C109.255 18.8762 109.283 19.0092 109.345 19.1196C109.403 19.184 109.473 19.2294 109.55 19.2515C109.627 19.2736 109.707 19.2715 109.783 19.2456C109.934 19.1911 110.092 19.1731 110.249 19.1926C110.414 19.257 110.557 19.3855 110.655 19.5577C111.147 20.3262 111.342 21.1623 111.552 22.0787Z" fill="#2D293D"/>
<g opacity="0.1">
<path opacity="0.1" d="M115.978 21.6661C115.844 21.8406 115.677 21.9734 115.49 22.0531C114.49 22.5515 113.365 22.4949 112.289 22.4182C112.173 22.4196 112.059 22.389 111.955 22.3288C111.79 22.2138 111.728 21.9728 111.678 21.7538C111.467 20.841 111.274 20.0031 110.774 19.2419C110.677 19.0664 110.535 18.9346 110.368 18.8677C110.211 18.85 110.053 18.868 109.902 18.9207C109.826 18.9468 109.746 18.9492 109.669 18.9274C109.593 18.9057 109.522 18.8606 109.464 18.7965C109.402 18.6861 109.374 18.5531 109.385 18.4205C109.385 18.0371 109.457 17.6082 109.257 17.3106C109.146 17.1445 108.969 17.0551 108.854 16.8908C108.78 16.7696 108.734 16.6266 108.722 16.4768C108.71 16.327 108.732 16.1761 108.786 16.0401C108.595 16.4052 108.515 16.8634 108.736 17.1774C108.85 17.3398 109.027 17.4293 109.138 17.5954C109.338 17.8948 109.271 18.3256 109.266 18.7053C109.254 18.8376 109.282 18.9707 109.344 19.0813C109.402 19.146 109.472 19.1916 109.549 19.2137C109.626 19.2357 109.707 19.2335 109.783 19.2073C109.934 19.1528 110.092 19.1348 110.249 19.1543C110.415 19.2187 110.557 19.3471 110.655 19.5194C111.153 20.2806 111.348 21.1167 111.559 22.033C111.583 22.2585 111.677 22.4649 111.822 22.6117C111.927 22.672 112.042 22.702 112.158 22.6993C113.239 22.7797 114.365 22.8381 115.359 22.3342C115.546 22.2551 115.713 22.1222 115.847 21.9473C115.914 21.8444 115.966 21.7283 115.999 21.6041C116.001 21.6278 115.99 21.6479 115.978 21.6661Z" fill="black"/>
<path opacity="0.1" d="M109.079 15.476C109.127 15.4138 109.163 15.3405 109.187 15.2606C109.201 15.1683 109.201 15.0737 109.187 14.9813C109.157 14.4609 109.214 13.9385 109.353 13.4443L109.333 13.4169C109.125 14.0002 109.037 14.6354 109.079 15.2679C109.083 15.3372 109.083 15.4068 109.079 15.476Z" fill="black"/>
</g>
<path opacity="0.1" d="M110.92 24.6525C110.92 24.6525 115.351 25.3572 115.749 24.5594L110.92 24.6525Z" fill="black"/>
<path opacity="0.1" d="M119.534 22.4566C119.534 22.4566 121.998 22.4566 122.539 23.5665L119.534 22.4566Z" fill="black"/>
<path d="M133.317 121.058C132.586 121.84 131.636 122.265 130.656 122.248C130.406 122.248 130.06 122.305 130.059 122.604C130.065 122.692 130.09 122.777 130.132 122.849C130.441 123.466 130.93 123.926 131.504 124.14C132.038 124.333 132.608 124.3 133.164 124.266L134.788 124.165C135.092 124.145 135.397 124.127 135.702 124.081C136.007 124.036 136.339 123.961 136.658 123.899C137.441 123.765 138.233 123.721 139.022 123.767C139.233 123.776 139.48 123.767 139.605 123.585C139.73 123.402 139.666 123.053 139.618 122.78C139.521 122.216 139.618 121.624 139.529 121.058C139.376 120.065 138.658 119.304 137.872 118.944C137.14 118.612 135.844 118.231 135.152 118.786C134.422 119.368 133.975 120.341 133.317 121.058Z" fill="#3F3D56"/>
<path d="M134.929 87.7875C135.073 88.6035 135.733 89.2278 135.751 90.0602C135.768 90.7283 135.37 91.2887 135.083 91.8601C134.813 92.4519 134.585 93.0698 134.402 93.7074C133.862 95.3676 133.193 96.9629 132.402 98.4719C132.021 99.202 131.594 99.9815 131.681 100.83C131.742 101.227 131.859 101.609 132.027 101.958L133.17 104.678C133.421 105.221 133.617 105.798 133.754 106.396C133.853 106.913 133.862 107.448 133.92 107.973C134.1 109.642 134.754 111.321 134.367 112.939C134.333 113.077 134.214 113.245 134.121 113.148C134.499 113.994 134.803 114.844 134.774 115.803C134.759 116.305 134.631 116.829 134.785 117.296C134.85 117.491 134.964 117.674 134.963 117.884C134.963 118.022 134.91 118.152 134.897 118.287C134.865 118.672 135.161 118.994 135.467 119.116C135.774 119.238 136.108 119.229 136.417 119.34C137.012 119.554 137.437 120.167 137.942 120.593C138.459 121.02 139.069 121.257 139.698 121.277C139.787 121.289 139.878 121.267 139.957 121.215C140.002 121.168 140.038 121.11 140.062 121.046C140.087 120.981 140.1 120.91 140.1 120.839C140.128 120.498 140.085 120.154 139.975 119.838C139.866 119.521 139.693 119.242 139.472 119.025C139.375 118.952 139.295 118.852 139.239 118.732C139.21 118.627 139.203 118.515 139.218 118.406C139.31 116.91 139.287 115.406 139.15 113.915C139.089 113.443 139.069 112.963 139.091 112.486C139.123 112.088 139.224 111.694 139.187 111.297C139.15 110.901 138.981 110.54 138.882 110.158C138.705 109.479 138.754 108.749 138.73 108.039C138.699 106.805 138.463 105.593 138.228 104.388C138.135 103.915 138.033 103.421 137.754 103.07C137.516 102.773 137.132 102.488 137.222 102.092C137.272 101.946 137.346 101.813 137.44 101.703C137.55 101.537 137.631 101.346 137.678 101.141C137.725 100.937 137.736 100.723 137.711 100.513C137.812 100.543 137.918 100.531 138.011 100.479C138.105 100.426 138.181 100.336 138.225 100.224C140.082 99.1746 141.579 97.0754 142.247 94.7479C142.286 94.5751 142.347 94.4102 142.426 94.2587C142.599 93.9703 142.898 93.8462 143.163 93.6874C143.995 93.1854 144.57 92.2452 145.097 91.3252C145.402 90.7922 145.707 90.2409 145.844 89.613C145.916 89.2068 145.951 88.7923 145.946 88.3771L145.994 86.2322C146.004 86.091 145.993 85.9487 145.96 85.8124C145.915 85.685 145.849 85.5696 145.766 85.4728C145.259 84.8308 144.594 84.4008 143.867 84.2461C143.379 84.1421 142.881 84.1622 142.387 84.1129C141.429 84.018 140.484 83.662 139.527 83.7478C138.022 83.881 136.682 85.1297 135.974 86.7251C135.725 87.2873 135.463 87.7766 134.929 87.7875Z" fill="#464353"/>
<path d="M126.576 73.8411C126.596 74.1722 126.559 74.5048 126.466 74.8177C126.348 75.1171 126.054 75.3507 125.797 75.2284C125.874 75.0185 125.669 74.7793 125.477 74.8049C125.382 74.831 125.294 74.8842 125.221 74.9598C125.147 75.0355 125.09 75.1314 125.054 75.2394C124.927 75.5459 124.884 75.893 124.932 76.2306C124.993 76.6504 125.196 77.0539 125.143 77.4755C125.1 77.826 124.885 78.1747 124.999 78.4996C125.074 78.6481 125.167 78.7817 125.275 78.8957C125.426 79.1179 125.5 79.4008 125.481 79.6861C125.463 79.9714 125.354 80.2373 125.176 80.4291L128.06 80.4985C127.955 81.0753 128.172 81.6649 128.419 82.1779C129.11 83.5881 130.065 84.7873 131.209 85.6814C132.353 86.5755 133.654 87.1402 135.01 87.3311C134.937 87.3824 134.874 87.4526 134.826 87.5365C134.778 87.6205 134.746 87.7161 134.733 87.8166C134.72 87.917 134.725 88.0197 134.749 88.1173C134.773 88.2149 134.815 88.3049 134.872 88.3808C135.106 88.6601 135.504 88.6254 135.798 88.4447C136.093 88.2639 136.323 87.9646 136.591 87.7327C137.065 87.3309 137.643 87.1444 138.221 87.207C138.582 87.249 138.933 87.3895 139.295 87.4114C140.362 87.479 141.277 86.559 142.305 86.1829C143.053 85.9073 143.902 85.9073 144.53 85.3469C144.802 85.1059 145.024 84.7098 144.945 84.3191C144.879 84.0946 144.775 83.8889 144.64 83.7149C144.279 83.1545 144.065 82.4809 143.806 81.8438C143.293 80.5825 142.586 79.4481 141.722 78.4996C141.07 77.8174 140.38 77.1903 139.655 76.6231C139.48 76.4682 139.293 76.3332 139.097 76.2196C138.844 76.0864 138.564 76.0225 138.335 75.8545C137.997 75.599 137.801 75.1481 137.541 74.7848C136.969 73.9853 136.091 73.6184 135.387 72.9904C134.914 72.5687 134.497 72.0138 133.932 71.8112C133.658 71.7108 133.367 71.7035 133.093 71.6049C132.469 71.3785 132.015 70.7159 131.403 70.4476C130.92 70.2358 130.387 70.2906 129.879 70.2157C129.307 70.1312 128.76 69.8819 128.286 69.4892C128.133 69.3402 127.962 69.2207 127.778 69.1351C127.006 68.8539 126.943 70.5772 126.864 71.1741C126.762 72.0613 126.576 72.943 126.576 73.8411Z" fill="#6C63FF"/>
<path d="M127.329 79.6205C127.458 81.3036 126.397 82.9337 126.707 84.5821C126.772 84.9325 126.899 85.2666 126.944 85.6226C127.074 86.5992 126.586 87.5247 126.121 88.3425L122.127 95.3613C121.967 95.6695 121.775 95.9527 121.557 96.2047C120.795 97.017 119.649 96.9349 118.645 97.1758C117.941 97.3492 117.275 97.7015 116.694 98.209C116.668 98.2333 116.651 98.2688 116.646 98.308C116.642 98.3473 116.65 98.3871 116.67 98.419C116.835 98.689 117.055 98.9051 117.308 99.0476C117.561 99.1902 117.84 99.2546 118.12 99.2349C118.225 99.3992 118.12 99.6438 117.975 99.7625C117.761 99.945 117.466 99.987 117.423 100.423C117.408 100.575 117.434 100.728 117.496 100.861C117.657 101.156 117.908 101.364 118.194 101.442C119.577 101.949 121.071 101.059 122.106 99.8483C123.141 98.638 123.883 97.1101 124.899 95.8798C125.461 95.197 126.1 94.6147 126.679 93.9539C127.835 92.6341 128.734 91.0332 129.6 89.4286C129.861 88.9449 130.124 88.4484 130.233 87.8879C130.341 87.3275 130.29 86.7598 130.414 86.2177C130.576 85.5076 131.01 84.9398 131.371 84.3448C132.08 83.1765 132.554 81.7471 132.46 80.3069C132.365 78.8666 131.621 77.4464 130.487 76.9572C130.135 76.7898 129.748 76.7616 129.382 76.8768C128.917 77.0484 128.574 77.5084 128.257 77.9502L127.495 78.998C127.309 79.23 127.164 79.5036 127.066 79.803C127.017 79.9539 127.005 80.1185 127.032 80.2772C127.059 80.4358 127.124 80.5818 127.219 80.6975" fill="#FBBEBE"/>
<path d="M129.353 72.7167C128.829 72.7532 128.251 72.8153 127.881 73.2643C127.725 73.4705 127.6 73.7062 127.509 73.9617C127.149 74.8397 126.798 75.7579 126.772 76.7363C126.751 77.5176 126.94 78.2825 127.039 79.0547C127.122 79.6972 126.913 80.3525 126.873 81.0024C127.524 80.7633 128.384 80.4383 128.974 80.0349C129.376 79.7593 129.765 79.4453 130.204 79.2701C130.83 79.02 131.881 79.4526 132.477 79.7994C132.509 79.2993 132.195 78.4267 132.228 77.9247C132.233 77.7134 132.264 77.5041 132.321 77.304C132.41 77.0924 132.516 76.8913 132.637 76.7035C132.864 76.2617 132.968 75.7453 132.935 75.2282C132.902 74.7112 132.733 74.2199 132.452 73.8247C131.923 73.1128 131.096 72.8463 130.306 72.7295C129.809 72.6604 129.308 72.6397 128.808 72.6674" fill="#6C63FF"/>
</g>
<defs>
<linearGradient id="paint0_linear" x1="107.657" y1="100.505" x2="107.657" y2="11.3031" gradientUnits="userSpaceOnUse">
<stop stop-color="#808080" stop-opacity="0.25"/>
<stop offset="0.54" stop-color="#808080" stop-opacity="0.12"/>
<stop offset="1" stop-color="#808080" stop-opacity="0.1"/>
</linearGradient>
<clipPath id="clip0">
<rect width="160" height="123.873" fill="white" transform="translate(0 0.803101)"/>
</clipPath>
</defs>
</svg>
