<svg width="167" height="129" viewBox="0 0 167 129" fill="none" xmlns="http://www.w3.org/2000/svg">
<g clip-path="url(#clip0)">
<path d="M31.4895 99.5983C31.4895 99.5983 93.6274 51.5164 129.415 99.5983H31.4895Z" fill="#F2F2F2"/>
<path d="M133.455 128.404C149.35 128.404 162.235 126.542 162.235 124.246C162.235 121.949 149.35 120.087 133.455 120.087C117.56 120.087 104.675 121.949 104.675 124.246C104.675 126.542 117.56 128.404 133.455 128.404Z" fill="#F2F2F2"/>
<path d="M138.127 126.845C154.021 126.845 166.907 124.983 166.907 122.686C166.907 120.39 154.021 118.528 138.127 118.528C122.232 118.528 109.347 120.39 109.347 122.686C109.347 124.983 122.232 126.845 138.127 126.845Z" stroke="#3F3D56" stroke-width="0.329565" stroke-miterlimit="10"/>
<path d="M150.365 79.6638C150.788 79.8062 151.24 79.8557 151.687 79.8083C152.133 79.761 152.562 79.6181 152.938 79.391C153.315 79.1639 153.63 78.8588 153.858 78.4996C154.086 78.1405 154.221 77.7372 154.252 77.3215C154.283 76.9058 154.21 76.4891 154.037 76.1042C153.865 75.7193 153.599 75.3767 153.26 75.1035C152.92 74.8303 152.517 74.6339 152.082 74.5298C151.647 74.4257 151.191 74.4167 150.752 74.5036L150.824 75.8885L150.118 74.7016C149.424 75.0038 148.888 75.5489 148.628 76.2171C148.536 76.4512 148.479 76.6962 148.461 76.9449C148.417 77.5285 148.578 78.1096 148.922 78.6002C149.265 79.0908 149.772 79.4642 150.365 79.6638Z" fill="#57B894"/>
<path d="M153.862 95.726C153.613 94.5483 154.694 93.5041 155.762 92.8254C156.829 92.1468 158.077 91.4799 158.441 90.3281C158.965 88.6729 157.405 87.1569 156.191 85.8496C155.291 84.8795 154.517 83.8138 153.887 82.6749C153.613 82.2275 153.427 81.7388 153.336 81.2313C153.241 80.4976 153.495 79.7674 153.751 79.0676C154.604 76.7361 155.517 74.4241 156.488 72.1317" stroke="#3F3D56" stroke-width="0.329565" stroke-miterlimit="10"/>
<path d="M150.485 79.3073C150.908 79.4496 151.36 79.4991 151.806 79.4518C152.253 79.4044 152.682 79.2616 153.058 79.0345C153.435 78.8074 153.75 78.5022 153.978 78.1431C154.206 77.7839 154.341 77.3806 154.372 76.9649C154.403 76.5492 154.329 76.1325 154.157 75.7476C153.985 75.3627 153.719 75.0201 153.379 74.7469C153.04 74.4737 152.637 74.2773 152.202 74.1732C151.767 74.0691 151.311 74.0601 150.872 74.147L150.944 75.5319L150.238 74.345C149.544 74.6472 149.008 75.1923 148.748 75.8605C148.655 76.0946 148.599 76.3397 148.581 76.5884C148.536 77.1719 148.698 77.753 149.042 78.2436C149.385 78.7343 149.892 79.1077 150.485 79.3073V79.3073Z" stroke="#3F3D56" stroke-width="0.329565" stroke-miterlimit="10"/>
<path d="M153.508 71.6534C153.673 71.2294 153.951 70.8508 154.317 70.5526C154.682 70.2544 155.122 70.0463 155.596 69.9472L155.835 71.2638L156.278 69.881C156.893 69.8895 157.49 70.079 157.981 70.4221C158.472 70.7652 158.833 71.2443 159.012 71.79C159.191 72.3358 159.177 72.9201 158.975 73.4585C158.772 73.9969 158.389 74.4616 157.883 74.7855C157.377 75.1094 156.772 75.2757 156.158 75.2604C155.543 75.2452 154.949 75.0491 154.462 74.7006C153.975 74.352 153.62 73.869 153.449 73.3213C153.277 72.7736 153.298 72.1895 153.508 71.6534H153.508Z" fill="#57B894"/>
<path d="M153.667 71.178C153.832 70.7539 154.111 70.3754 154.476 70.0772C154.841 69.779 155.281 69.5708 155.755 69.4718L155.994 70.7884L156.437 69.4056C157.052 69.4141 157.649 69.6036 158.14 69.9467C158.631 70.2898 158.992 70.7688 159.171 71.3146C159.35 71.8604 159.337 72.4447 159.134 72.9831C158.931 73.5215 158.549 73.9862 158.042 74.3101C157.536 74.6339 156.932 74.8003 156.317 74.785C155.702 74.7697 155.108 74.5737 154.621 74.2252C154.134 73.8766 153.779 73.3936 153.608 72.8459C153.436 72.2982 153.457 71.7141 153.667 71.178V71.178Z" stroke="#3F3D56" stroke-width="0.329565" stroke-miterlimit="10"/>
<path d="M155.682 85.8763C156.352 86.1016 157.088 86.0905 157.749 85.8451C158.411 85.5997 158.952 85.1371 159.269 84.5456C159.587 83.9541 159.658 83.275 159.47 82.6377C159.282 82.0004 158.848 81.4495 158.25 81.09L157.91 82.1526L157.668 80.8205C157.666 80.8195 157.663 80.8186 157.661 80.818C157.303 80.6975 156.922 80.6436 156.542 80.6594C156.161 80.6752 155.787 80.7603 155.442 80.91C155.097 81.0596 154.787 81.2709 154.53 81.5316C154.273 81.7924 154.073 82.0975 153.943 82.4297C153.814 82.7618 153.755 83.1144 153.772 83.4674C153.789 83.8203 153.881 84.1667 154.043 84.4868C154.204 84.8068 154.432 85.0943 154.713 85.3327C154.994 85.5711 155.324 85.7559 155.682 85.8763Z" fill="#57B894"/>
<path d="M155.82 85.3948C156.49 85.6201 157.226 85.609 157.887 85.3636C158.549 85.1181 159.09 84.6556 159.407 84.0641C159.725 83.4725 159.796 82.7934 159.608 82.1561C159.42 81.5188 158.986 80.968 158.388 80.6085L158.048 81.6711L157.807 80.339C157.804 80.3379 157.802 80.3371 157.799 80.3364C157.076 80.0931 156.278 80.1261 155.58 80.4284C154.883 80.7307 154.344 81.2773 154.082 81.9481C153.819 82.6189 153.855 83.3589 154.181 84.0052C154.507 84.6516 155.097 85.1514 155.82 85.3948V85.3948Z" stroke="#3F3D56" stroke-width="0.329565" stroke-miterlimit="10"/>
<path d="M152.661 90.3446C152.776 90.9522 153.113 91.5047 153.615 91.9093C154.117 92.3139 154.755 92.546 155.42 92.5668C156.085 92.5876 156.737 92.3957 157.268 92.0233C157.798 91.651 158.175 91.1208 158.334 90.5217C158.493 89.9227 158.425 89.2911 158.141 88.733C157.857 88.1749 157.375 87.7242 156.776 87.4564C156.177 87.1886 155.496 87.1202 154.848 87.2624C154.201 87.4047 153.626 87.749 153.22 88.2377L154.513 90.042L152.746 89.0843C152.609 89.492 152.58 89.9242 152.661 90.3446Z" fill="#57B894"/>
<path d="M152.78 89.9881C152.895 90.5957 153.232 91.1481 153.735 91.5527C154.237 91.9573 154.874 92.1895 155.539 92.2103C156.204 92.231 156.857 92.0391 157.387 91.6668C157.918 91.2944 158.294 90.7643 158.453 90.1652C158.612 89.5661 158.544 88.9345 158.261 88.3764C157.977 87.8183 157.495 87.3676 156.896 87.0998C156.296 86.8321 155.616 86.7636 154.968 86.9058C154.321 87.0481 153.746 87.3924 153.339 87.8811L154.632 89.6854L152.866 88.7278C152.729 89.1354 152.699 89.5677 152.78 89.9881V89.9881Z" stroke="#3F3D56" stroke-width="0.329565" stroke-miterlimit="10"/>
<path d="M149.833 97.3213C149.833 97.3213 152.394 96.3909 153.166 95.8813C153.937 95.3718 157.105 94.7634 157.296 95.5806C157.488 96.3977 161.145 99.6448 158.254 99.6665C155.362 99.6881 151.536 100.106 150.765 99.6712C149.995 99.2362 149.833 97.3213 149.833 97.3213Z" fill="#656380"/>
<path opacity="0.2" d="M158.305 99.382C155.414 99.4036 151.587 99.8218 150.817 99.3868C150.23 99.0555 149.997 97.8667 149.918 97.3182C149.864 97.3204 149.833 97.3213 149.833 97.3213C149.833 97.3213 149.995 99.2362 150.765 99.6712C151.536 100.106 155.362 99.6881 158.254 99.6665C159.088 99.6602 159.376 99.3849 159.361 98.9772C159.245 99.2235 158.926 99.3774 158.305 99.382Z" fill="black"/>
<path d="M38.7123 72.3085H31.9287C30.7056 72.3085 29.7141 73.2278 29.7141 74.3619V97.6316C29.7141 98.7656 30.7056 99.6849 31.9287 99.6849H38.7123C39.9354 99.6849 40.927 98.7656 40.927 97.6316V74.3619C40.927 73.2278 39.9354 72.3085 38.7123 72.3085Z" fill="#23D3D3"/>
<path d="M60.0165 55.8481H53.2329C52.0098 55.8481 51.0183 56.7674 51.0183 57.9014V97.6316C51.0183 98.7657 52.0098 99.685 53.2329 99.685H60.0165C61.2396 99.685 62.2312 98.7657 62.2312 97.6316V57.9014C62.2312 56.7674 61.2396 55.8481 60.0165 55.8481Z" fill="#23D3D3"/>
<path d="M81.321 44.4124H74.5374C73.3143 44.4124 72.3228 45.3317 72.3228 46.4657V97.6316C72.3228 98.7656 73.3143 99.685 74.5374 99.685H81.321C82.5441 99.685 83.5356 98.7656 83.5356 97.6316V46.4657C83.5356 45.3317 82.5441 44.4124 81.321 44.4124Z" fill="#23D3D3"/>
<path d="M102.626 33.4964H95.8421C94.619 33.4964 93.6274 34.4157 93.6274 35.5497V97.6316C93.6274 98.7656 94.619 99.6849 95.8421 99.6849H102.626C103.849 99.6849 104.84 98.7656 104.84 97.6316V35.5497C104.84 34.4157 103.849 33.4964 102.626 33.4964Z" fill="#23D3D3"/>
<path d="M123.93 14.437H117.147C115.923 14.437 114.932 15.3563 114.932 16.4903V97.6317C114.932 98.7657 115.923 99.685 117.147 99.685H123.93C125.153 99.685 126.145 98.7657 126.145 97.6317V16.4903C126.145 15.3563 125.153 14.437 123.93 14.437Z" fill="#23D3D3"/>
<path d="M40.2072 70.9224H33.4236C32.2005 70.9224 31.209 71.8417 31.209 72.9757V96.2455C31.209 97.3795 32.2005 98.2988 33.4236 98.2988H40.2072C41.4303 98.2988 42.4218 97.3795 42.4218 96.2455V72.9757C42.4218 71.8417 41.4303 70.9224 40.2072 70.9224Z" stroke="#3F3D56" stroke-width="0.329565" stroke-miterlimit="10"/>
<path d="M61.5119 54.4619H54.7283C53.5052 54.4619 52.5137 55.3812 52.5137 56.5152V96.2455C52.5137 97.3795 53.5052 98.2988 54.7283 98.2988H61.5119C62.735 98.2988 63.7265 97.3795 63.7265 96.2455V56.5152C63.7265 55.3812 62.735 54.4619 61.5119 54.4619Z" stroke="#3F3D56" stroke-width="0.329565" stroke-miterlimit="10"/>
<path d="M82.8161 43.0262H76.0325C74.8094 43.0262 73.8179 43.9455 73.8179 45.0795V96.2454C73.8179 97.3795 74.8094 98.2988 76.0325 98.2988H82.8161C84.0392 98.2988 85.0307 97.3795 85.0307 96.2454V45.0795C85.0307 43.9455 84.0392 43.0262 82.8161 43.0262Z" stroke="#3F3D56" stroke-width="0.329565" stroke-miterlimit="10"/>
<path d="M104.121 32.1103H97.3372C96.1141 32.1103 95.1226 33.0296 95.1226 34.1636V96.2455C95.1226 97.3795 96.1141 98.2988 97.3372 98.2988H104.121C105.344 98.2988 106.335 97.3795 106.335 96.2455V34.1636C106.335 33.0296 105.344 32.1103 104.121 32.1103Z" stroke="#3F3D56" stroke-width="0.329565" stroke-miterlimit="10"/>
<path d="M125.425 13.0508H118.642C117.419 13.0508 116.427 13.9701 116.427 15.1041V96.2455C116.427 97.3795 117.419 98.2988 118.642 98.2988H125.425C126.648 98.2988 127.64 97.3795 127.64 96.2455V15.1041C127.64 13.9701 126.648 13.0508 125.425 13.0508Z" stroke="#3F3D56" stroke-width="0.329565" stroke-miterlimit="10"/>
<path d="M160.904 99.7716H0" stroke="#3F3D56" stroke-width="0.329565" stroke-miterlimit="10"/>
<path d="M150.758 83.151C150.758 83.151 152.516 89.0212 150.289 89.8908C148.061 90.7605 148.764 83.3684 148.764 83.3684L150.758 83.151Z" fill="#A0616A"/>
<path d="M134.812 120.764C134.812 120.764 133.17 120.655 132.584 120.981C132.409 121.076 132.213 121.135 132.011 121.154C131.808 121.173 131.604 121.151 131.412 121.09C131.412 121.09 128.832 120.872 129.77 122.068C130.708 123.264 131.646 123.699 131.646 124.242C131.646 124.786 135.515 124.786 135.633 124.242C135.75 123.699 135.867 120.872 135.633 120.764C135.398 120.655 134.812 120.764 134.812 120.764Z" fill="#575A89"/>
<path d="M139.15 120.764C139.15 120.764 140.791 120.655 141.378 120.981C141.553 121.076 141.749 121.135 141.951 121.154C142.153 121.173 142.358 121.151 142.55 121.09C142.55 121.09 145.13 120.872 144.192 122.068C143.254 123.264 142.316 123.699 142.316 124.242C142.316 124.786 138.446 124.786 138.329 124.242C138.212 123.699 138.095 120.872 138.329 120.764C138.564 120.655 139.15 120.764 139.15 120.764Z" fill="#575A89"/>
<path d="M130.005 81.9553C130.005 81.9553 129.184 99.1309 129.653 100.001C130.122 100.87 131.763 115.546 131.529 116.415C131.295 117.285 130.122 120.872 131.529 121.416C132.936 121.959 135.984 121.416 135.984 121.416C135.984 121.416 136.805 117.068 136.453 114.785C136.102 112.502 135.984 102.936 135.984 102.936L138.329 92.9347L139.15 102.392C139.15 102.392 139.385 115.328 137.743 117.937C136.102 120.546 138.329 121.633 138.329 121.633C138.329 121.633 142.785 122.177 143.254 122.068C143.723 121.959 142.902 117.72 143.254 115.872C143.605 114.024 144.426 103.697 145.13 101.196C145.833 98.6961 149.82 84.7816 146.888 81.9553C143.957 79.1289 130.005 81.9553 130.005 81.9553Z" fill="#3F3D56"/>
<path d="M138.564 47.2778C140.83 47.2778 142.668 45.5743 142.668 43.473C142.668 41.3717 140.83 39.6683 138.564 39.6683C136.297 39.6683 134.46 41.3717 134.46 43.473C134.46 45.5743 136.297 47.2778 138.564 47.2778Z" fill="#A0616A"/>
<path d="M135.515 45.2123C135.515 45.2123 136.219 50.4302 135.867 50.5389C135.515 50.6476 142.081 50.5389 142.081 50.5389C142.081 50.5389 140.791 47.3864 142.081 44.8862L135.515 45.2123Z" fill="#A0616A"/>
<path d="M135.515 49.4519C135.515 49.4519 138.373 46.8429 141.751 49.4519L141.97 50.2296L140.205 50.2128H135.515V49.4519Z" fill="#F2F2F2"/>
<path d="M149.468 82.8249C149.197 82.8749 148.533 82.9771 147.668 83.0988C144.787 83.5021 139.682 84.1131 139.502 83.6945C139.267 83.151 138.447 81.1943 137.86 82.064C137.274 82.9336 137.626 83.6945 135.164 83.8033C133.488 83.8772 131.053 83.6489 129.705 83.2902C129.071 83.1217 128.677 82.9249 128.715 82.7162C128.832 82.064 130.122 69.6714 130.122 68.4756C130.122 67.2798 130.591 61.5183 130.591 61.5183L127.221 55.371L126.956 54.8872C126.956 54.8872 127.308 53.6915 128.363 53.474C129.418 53.2566 134.46 50.539 134.46 50.539C134.46 50.539 135.515 49.0171 137.509 49.1258C139.502 49.2345 139.971 48.4735 142.667 50.539C142.667 50.539 145.95 51.8435 147.123 52.4957C148.295 53.1479 149.585 53.1479 149.702 54.235C149.726 54.4535 149.598 54.8742 149.379 55.4058C148.576 57.3538 146.546 60.8009 146.228 61.3379C146.2 61.3846 146.185 61.4097 146.185 61.4097C146.185 61.4097 146.124 63.3642 146.188 65.6525V65.6579C146.252 67.8527 146.43 70.354 146.888 71.7368C147.826 74.5632 150.64 82.6075 149.468 82.8249Z" fill="#575A89"/>
<path d="M143.891 41.9112C143.809 41.5649 143.651 41.2378 143.427 40.9503C143.338 40.1553 143.052 39.3901 142.591 38.7143C142.411 38.3977 142.155 38.1235 141.843 37.9129C141.485 37.7219 141.077 37.6276 140.664 37.6405C140.59 37.6394 140.455 37.6604 140.334 37.6655C140.256 37.6433 140.178 37.6234 140.1 37.6047C140.054 37.5103 139.963 37.2352 139.938 37.2538L139.596 37.5057C139.451 37.4824 139.306 37.4643 139.16 37.4499C139.107 37.3095 139.054 37.1691 139.001 37.0286C138.915 37.1542 138.839 37.2858 138.775 37.4222C138.63 37.4157 138.485 37.4133 138.339 37.4153L138.049 37.1565C138.032 37.2287 137.992 37.2947 137.935 37.3464C137.878 37.3981 137.806 37.4333 137.728 37.4476C137.594 37.4604 137.461 37.477 137.328 37.4968C137.318 37.4967 137.307 37.4968 137.296 37.4965C136.58 37.48 135.81 37.4502 135.212 37.8145C134.932 37.9928 134.704 38.2327 134.548 38.5127C134.475 38.5588 134.402 38.6047 134.331 38.6536C134.091 38.8054 133.882 38.9966 133.717 39.2179C133.596 39.4086 133.505 39.614 133.445 39.8281C133.217 40.4724 133.111 41.1486 133.132 41.8265C133.157 42.509 133.435 43.1628 133.919 43.6775C134.226 43.9832 134.616 44.209 134.923 44.5144C135.556 45.1432 135.675 46.0202 136.216 46.6856C136.788 47.3893 137.833 47.8524 138.751 47.9851C139.303 48.0622 139.865 48.0374 140.407 47.9123C140.948 47.7871 141.458 47.5639 141.906 47.2556C142.121 47.1168 142.303 46.9392 142.443 46.7335C142.761 46.2227 142.626 45.5807 142.745 45.001C142.966 43.9143 144.085 43.0024 143.891 41.9112Z" fill="#3F3D56"/>
<path d="M128.246 83.4771C128.246 83.4771 130.005 89.3473 127.777 90.2169C125.549 91.0866 126.253 83.6945 126.253 83.6945L128.246 83.4771Z" fill="#A0616A"/>
<path opacity="0.1" d="M130.355 70.1562C130.355 70.1562 129.586 80.7399 129.704 83.2901C129.071 83.1216 128.677 82.9249 128.715 82.7162C128.832 82.0639 130.122 69.6713 130.122 68.4756C130.122 67.2798 130.591 61.5183 130.591 61.5183L127.221 55.371C127.275 55.0666 127.308 54.8872 127.308 54.8872L129.008 58.2028L131.412 58.8007L130.355 70.1562Z" fill="black"/>
<path d="M127.777 54.2349L126.956 54.8872C126.956 54.8872 125.901 60.6486 126.018 62.0618C126.135 63.475 123.556 84.8902 125.549 84.8902C127.542 84.8902 129.77 84.5641 129.418 83.8032C129.067 83.0422 130.004 70.1561 130.004 70.1561L131.06 58.8006L127.777 54.2349Z" fill="#575A89"/>
<path opacity="0.1" d="M149.379 55.4058C148.576 57.3538 146.546 60.8009 146.228 61.3379C146.238 59.9475 146.244 58.9637 146.244 58.9637L148.706 54.2893L149.233 53.9089C149.233 53.9089 149.29 54.4839 149.379 55.4058Z" fill="black"/>
<path opacity="0.1" d="M149.468 82.8248C149.197 82.8748 148.534 82.977 147.668 83.0988C147.219 80.0202 146.019 71.1671 146.095 70.3333C146.132 69.9224 146.164 67.8918 146.189 65.6578C146.252 67.8526 146.43 70.354 146.889 71.7367C147.827 74.5631 150.64 82.6074 149.468 82.8248Z" fill="black"/>
<path d="M147.943 53.474L149.702 53.9088C149.702 53.9088 150.875 65.9753 150.992 68.0407C151.109 70.1061 152.516 82.8248 152.281 83.3684C152.047 83.9119 148.412 84.6729 148.295 84.1293C148.178 83.5858 146.473 71.3211 146.563 70.3331C146.654 69.3452 146.067 59.1268 146.067 59.1268L147.943 53.474Z" fill="#575A89"/>
<path d="M36.7222 60.4397L58.0266 43.9792L79.5179 32.7168L100.822 21.8009L122.127 2.74133" stroke="#3F3D56" stroke-width="0.329565" stroke-miterlimit="10"/>
<path d="M36.1612 63.212C37.2965 63.212 38.2168 62.3587 38.2168 61.306C38.2168 60.2534 37.2965 59.4001 36.1612 59.4001C35.0258 59.4001 34.1055 60.2534 34.1055 61.306C34.1055 62.3587 35.0258 63.212 36.1612 63.212Z" fill="#F2F2F2"/>
<path d="M57.4658 46.7514C58.6012 46.7514 59.5215 45.8981 59.5215 44.8455C59.5215 43.7928 58.6012 42.9395 57.4658 42.9395C56.3305 42.9395 55.4102 43.7928 55.4102 44.8455C55.4102 45.8981 56.3305 46.7514 57.4658 46.7514Z" fill="#F2F2F2"/>
<path d="M78.9571 35.489C80.0924 35.489 81.0128 34.6356 81.0128 33.583C81.0128 32.5304 80.0924 31.6771 78.9571 31.6771C77.8217 31.6771 76.9014 32.5304 76.9014 33.583C76.9014 34.6356 77.8217 35.489 78.9571 35.489Z" fill="#F2F2F2"/>
<path d="M100.262 24.5731C101.397 24.5731 102.317 23.7198 102.317 22.6672C102.317 21.6146 101.397 20.7612 100.262 20.7612C99.1264 20.7612 98.2061 21.6146 98.2061 22.6672C98.2061 23.7198 99.1264 24.5731 100.262 24.5731Z" fill="#F2F2F2"/>
<path d="M121.566 5.51356C122.702 5.51356 123.622 4.66024 123.622 3.60761C123.622 2.55498 122.702 1.70166 121.566 1.70166C120.431 1.70166 119.51 2.55498 119.51 3.60761C119.51 4.66024 120.431 5.51356 121.566 5.51356Z" fill="#F2F2F2"/>
<path d="M36.7222 62.3457C37.8575 62.3457 38.7779 61.4923 38.7779 60.4397C38.7779 59.3871 37.8575 58.5338 36.7222 58.5338C35.5869 58.5338 34.6665 59.3871 34.6665 60.4397C34.6665 61.4923 35.5869 62.3457 36.7222 62.3457Z" stroke="#3F3D56" stroke-width="0.329565" stroke-miterlimit="10"/>
<path d="M58.0266 45.8852C59.162 45.8852 60.0823 45.0318 60.0823 43.9792C60.0823 42.9266 59.162 42.0732 58.0266 42.0732C56.8913 42.0732 55.9709 42.9266 55.9709 43.9792C55.9709 45.0318 56.8913 45.8852 58.0266 45.8852Z" stroke="#3F3D56" stroke-width="0.329565" stroke-miterlimit="10"/>
<path d="M79.5181 34.6227C80.6534 34.6227 81.5738 33.7694 81.5738 32.7167C81.5738 31.6641 80.6534 30.8108 79.5181 30.8108C78.3828 30.8108 77.4624 31.6641 77.4624 32.7167C77.4624 33.7694 78.3828 34.6227 79.5181 34.6227Z" stroke="#3F3D56" stroke-width="0.329565" stroke-miterlimit="10"/>
<path d="M100.822 23.7068C101.957 23.7068 102.878 22.8535 102.878 21.8008C102.878 20.7482 101.957 19.8949 100.822 19.8949C99.6867 19.8949 98.7664 20.7482 98.7664 21.8008C98.7664 22.8535 99.6867 23.7068 100.822 23.7068Z" stroke="#3F3D56" stroke-width="0.329565" stroke-miterlimit="10"/>
<path d="M122.127 4.64631C123.262 4.64631 124.182 3.79299 124.182 2.74036C124.182 1.68774 123.262 0.834412 122.127 0.834412C120.991 0.834412 120.071 1.68774 120.071 2.74036C120.071 3.79299 120.991 4.64631 122.127 4.64631Z" stroke="#3F3D56" stroke-width="0.329565" stroke-miterlimit="10"/>
</g>
<defs>
<clipPath id="clip0">
<rect width="167" height="127.655" fill="white" transform="translate(0 0.748718)"/>
</clipPath>
</defs>
</svg>
